<?xml version="1.0" encoding="utf-8"?>
<!-- Generator: Adobe Illustrator 26.0.1, SVG Export Plug-In . SVG Version: 6.00 Build 0)  -->
<svg version="1.1" id="Layer_1" xmlns="http://www.w3.org/2000/svg" xmlns:xlink="http://www.w3.org/1999/xlink" x="0px" y="0px"
	 viewBox="0 0 620.57 592.74" style="enable-background:new 0 0 620.57 592.74;" xml:space="preserve">
<style type="text/css">
	.st0{fill:#FFFFFF;}
</style>
<g>
	<path class="st0" d="M87.47,221.97c0,1.93,0,3.58,0,5.24c0,82.11,0,164.22,0,246.33c0,1.84,0,3.69,0.08,5.53
		c1.1,24.06,16.28,38.67,40.2,38.68c118.55,0.01,237.1,0.01,355.65-0.03c3.52,0,7.07-0.28,10.55-0.8
		c23.58-3.58,39.47-22.06,39.47-45.79c0-80.88,0-161.76,0-242.64c0-2.1,0-4.19,0-6.51C384.62,221.97,236.44,221.97,87.47,221.97z
		 M165.23,100.88c-13,0-25.42,0-37.83,0c-21.57,0-37.09,12.28-38.87,33.68c-1.58,19.05-0.33,38.33-0.33,57.79
		c147.61,0,295.6,0,443.89,0c0-16.75,0.01-33.18-0.02-49.62c0-1.68-0.12-3.39-0.41-5.04c-3.05-17.71-19.74-33.87-39.25-35.78
		c-15.39-1.5-31-0.77-46.51-1.01c-0.73-0.01-1.47,0.18-2.7,0.35c0,1.8,0,3.45,0,5.1c0,11.38,0.19,22.76-0.12,34.13
		c-0.09,3.38-0.95,7.11-2.63,9.99c-2.93,5.06-9.48,7.02-14.98,5.44c-6.02-1.73-10-6.92-10.09-13.86
		c-0.15-11.99-0.04-23.99-0.07-35.98c0-1.62-0.17-3.24-0.26-4.83c-74.19,0-147.9,0-221.98,0c0,13.57,0.08,26.78-0.03,39.98
		c-0.07,9.08-5.7,15.11-13.82,15.14c-8.13,0.03-13.89-6.06-13.97-15.05c-0.11-11.38-0.03-22.76-0.03-34.14
		C165.23,105.23,165.23,103.28,165.23,100.88z"/>
	<path d="M87.47,221.97c148.97,0,297.15,0,445.95,0c0,2.32,0,4.42,0,6.51c0,80.88,0,161.76,0,242.64
		c0,23.73-15.88,42.21-39.47,45.79c-3.48,0.53-7.03,0.8-10.55,0.8c-118.55,0.04-237.1,0.04-355.65,0.03
		c-23.92,0-39.1-14.62-40.2-38.68c-0.08-1.84-0.08-3.69-0.08-5.53c0-82.11,0-164.22,0-246.33
		C87.47,225.55,87.47,223.89,87.47,221.97z M444.51,302.02c0-5.68,0.07-11.36-0.02-17.03c-0.12-7.39-4.38-11.65-11.81-11.71
		c-11.05-0.08-22.1-0.07-33.14,0c-7.25,0.05-11.76,4.02-11.92,11.15c-0.27,11.5-0.26,23.02,0.01,34.52
		c0.16,6.77,4.25,10.95,11.05,11.12c11.65,0.3,23.33,0.3,34.98-0.01c7.41-0.2,10.73-4.04,10.84-11.47
		C444.58,313.07,444.52,307.54,444.51,302.02z M305.18,455.14c5.52,0,11.05,0.07,16.57-0.02c7.66-0.12,11.44-3.52,11.61-11.19
		c0.26-11.35,0.24-22.71,0.02-34.06c-0.15-7.3-4.32-11.48-11.54-11.62c-11.35-0.21-22.71-0.23-34.06,0.02
		c-7.25,0.16-11.2,4.5-11.26,11.81c-0.09,11.05-0.09,22.1,0,33.14c0.06,7.66,4.31,11.8,12.09,11.9
		C294.13,455.2,299.66,455.15,305.18,455.14z M444.52,427.01c0-5.68,0.07-11.36-0.02-17.03c-0.12-7.18-4.18-11.57-11.39-11.71
		c-11.35-0.23-22.71-0.22-34.06,0c-7.03,0.14-11.27,4.26-11.43,11.24c-0.25,11.5-0.26,23.02,0.02,34.52
		c0.17,6.97,4.6,11.01,11.55,11.08c11.35,0.11,22.71,0.11,34.06-0.01c7.5-0.08,11.13-3.88,11.25-11.52
		C444.58,438.06,444.51,432.54,444.52,427.01z M276.51,301.63c0,5.68-0.08,11.36,0.02,17.03c0.12,6.6,3.74,11.09,10.26,11.29
		c12.26,0.38,24.54,0.33,36.8-0.04c6.14-0.19,9.42-3.5,9.6-9.65c0.36-12.26,0.38-24.54,0.02-36.8c-0.18-6.27-4.65-10.08-10.91-10.15
		c-11.51-0.13-23.02-0.12-34.52-0.01c-6.89,0.07-11.08,4.35-11.23,11.29C276.41,290.27,276.51,295.95,276.51,301.63z M166.73,426.52
		c0,5.37,0,10.75,0,16.12c0,0.31,0,0.61,0.01,0.92c0.22,7.15,4.38,11.46,11.54,11.54c10.9,0.12,21.8,0.11,32.7,0
		c7.16-0.08,12.28-4.32,12.55-11.44c0.44-11.65,0.33-23.33-0.03-34.99c-0.19-6.14-4.22-10.13-10.32-10.3
		c-11.96-0.33-23.95-0.33-35.91-0.02c-6.45,0.17-10.34,4.65-10.49,11.13C166.64,415.16,166.75,420.84,166.73,426.52z M195.36,273.27
		c-5.68,0-11.36-0.07-17.04,0.02c-7.19,0.12-11.48,4.31-11.55,11.48c-0.11,11.21-0.1,22.41-0.01,33.62
		c0.06,7.04,3.91,11.47,10.92,11.67c11.35,0.32,22.72,0.31,34.07-0.03c6.95-0.21,11.63-4.79,11.84-11.71
		c0.35-11.5,0.32-23.03-0.06-34.53c-0.22-6.68-4.75-10.4-11.59-10.5C206.41,273.2,200.89,273.26,195.36,273.27z"/>
	<path d="M165.23,100.88c0,2.41,0,4.35,0,6.3c0,11.38-0.08,22.76,0.03,34.14c0.08,8.99,5.84,15.07,13.97,15.05
		c8.13-0.03,13.75-6.05,13.82-15.14c0.1-13.21,0.03-26.42,0.03-39.98c74.08,0,147.79,0,221.98,0c0.09,1.59,0.26,3.21,0.26,4.83
		c0.03,11.99-0.08,23.99,0.07,35.98c0.09,6.94,4.07,12.13,10.09,13.86c5.5,1.58,12.05-0.38,14.98-5.44
		c1.68-2.89,2.53-6.61,2.63-9.99c0.31-11.37,0.12-22.75,0.12-34.13c0-1.65,0-3.3,0-5.1c1.24-0.17,1.97-0.36,2.7-0.35
		c15.51,0.24,31.12-0.49,46.51,1.01c19.51,1.91,36.2,18.07,39.25,35.78c0.29,1.66,0.4,3.36,0.41,5.04
		c0.03,16.44,0.02,32.87,0.02,49.62c-148.29,0-296.28,0-443.89,0c0-19.46-1.25-38.75,0.33-57.79c1.77-21.4,17.29-33.68,38.87-33.68
		C139.82,100.88,152.23,100.88,165.23,100.88z"/>
	<path class="st0" d="M444.51,302.02c0,5.52,0.07,11.05-0.02,16.57c-0.11,7.43-3.43,11.28-10.84,11.47
		c-11.65,0.31-23.32,0.31-34.98,0.01c-6.8-0.17-10.9-4.35-11.05-11.12c-0.27-11.5-0.28-23.02-0.01-34.52
		c0.17-7.14,4.68-11.11,11.92-11.15c11.05-0.07,22.1-0.08,33.14,0c7.43,0.06,11.69,4.32,11.81,11.71
		C444.59,290.66,444.51,296.34,444.51,302.02z"/>
	<path class="st0" d="M305.18,455.14c-5.52,0-11.05,0.06-16.57-0.01c-7.78-0.1-12.03-4.24-12.09-11.9c-0.08-11.05-0.08-22.1,0-33.14
		c0.06-7.31,4.01-11.66,11.26-11.81c11.35-0.24,22.71-0.22,34.06-0.02c7.21,0.13,11.39,4.31,11.54,11.62
		c0.23,11.35,0.24,22.71-0.02,34.06c-0.18,7.67-3.95,11.07-11.61,11.19C316.23,455.21,310.71,455.14,305.18,455.14z"/>
	<path class="st0" d="M444.51,427.01c0,5.52,0.07,11.05-0.02,16.57c-0.12,7.64-3.75,11.44-11.25,11.52
		c-11.35,0.12-22.71,0.12-34.06,0.01c-6.95-0.07-11.38-4.11-11.55-11.08c-0.28-11.5-0.27-23.02-0.02-34.52
		c0.15-6.98,4.39-11.1,11.43-11.24c11.35-0.22,22.71-0.23,34.06,0c7.22,0.14,11.28,4.53,11.39,11.71
		C444.59,415.66,444.52,421.33,444.51,427.01z"/>
	<path class="st0" d="M276.51,301.63c0-5.68-0.1-11.36,0.03-17.03c0.15-6.94,4.35-11.22,11.23-11.29
		c11.51-0.12,23.02-0.12,34.52,0.01c6.26,0.07,10.72,3.88,10.91,10.15c0.36,12.26,0.34,24.54-0.02,36.8
		c-0.18,6.16-3.46,9.46-9.6,9.65c-12.26,0.37-24.54,0.42-36.8,0.04c-6.52-0.2-10.13-4.69-10.26-11.29
		C276.42,312.98,276.51,307.3,276.51,301.63z"/>
	<path class="st0" d="M166.74,426.52c0.01-5.68-0.1-11.36,0.03-17.04c0.15-6.48,4.04-10.96,10.49-11.13
		c11.96-0.31,23.95-0.31,35.91,0.02c6.11,0.17,10.13,4.16,10.32,10.3c0.36,11.65,0.47,23.34,0.03,34.99
		c-0.27,7.13-5.39,11.37-12.55,11.44c-10.9,0.12-21.8,0.12-32.7,0c-7.16-0.08-11.32-4.39-11.54-11.54
		c-0.01-0.31-0.01-0.61-0.01-0.92C166.73,437.27,166.73,431.9,166.74,426.52z"/>
	<path class="st0" d="M195.36,273.26c5.53,0,11.05-0.07,16.58,0.02c6.84,0.1,11.37,3.82,11.59,10.5c0.38,11.5,0.41,23.03,0.06,34.53
		c-0.21,6.92-4.89,11.5-11.84,11.71c-11.35,0.35-22.72,0.36-34.07,0.03c-7.01-0.2-10.86-4.64-10.92-11.67
		c-0.09-11.21-0.1-22.41,0.01-33.62c0.07-7.17,4.36-11.36,11.55-11.48C184,273.19,189.68,273.27,195.36,273.26z"/>
</g>
</svg>
