<?xml version="1.0" encoding="utf-8"?>
<!-- Generator: Adobe Illustrator 26.0.1, SVG Export Plug-In . SVG Version: 6.00 Build 0)  -->
<svg version="1.1" id="Layer_1" xmlns="http://www.w3.org/2000/svg" xmlns:xlink="http://www.w3.org/1999/xlink" x="0px" y="0px"
	 viewBox="0 0 1040.2 1080" style="enable-background:new 0 0 1040.2 1080;" xml:space="preserve">
<path d="M541.3,101c13.7,1.6,27.5,3,41.2,4.9c80.5,10.9,152.5,42.1,216.9,91.3c17.9,13.7,22,35.8,9.7,53.2
	c-12.3,17.5-35.7,21.5-54,7.8c-32.1-24-66.2-44.3-103.9-58.2c-58.2-21.3-118.1-27.8-179.5-20.2c-71.3,8.9-134.9,36.5-190.1,82.1
	c-71.6,59-117.2,134.4-133.6,226.1c-15.1,84.8-3.8,166.4,37.5,242.1C244,838,333.9,905.3,455.3,927.1
	c99.2,17.8,192.1-1.7,275.2-58.7c96.9-66.4,153.1-158.8,165.6-276.3c7.3-68.4-4-134.1-33-196.7c-9.6-20.7-7-37.7,7.1-50
	c19.2-16.8,48.8-10.7,59.1,13.7c11.3,26.8,22.1,54.2,29.7,82.2c6.9,25.5,9,52.2,13.3,78.4c0.4,2.3,1,4.5,1.6,6.8c0,18.3,0,36.6,0,55
	c-0.5,3.1-1.2,6.3-1.6,9.4c-2.8,19.5-4.5,39.3-8.6,58.6c-23.7,109-79.7,198.3-168.5,265.6c-110.4,83.7-234.8,111.4-370.5,83.1
	c-108.6-22.6-196.8-79.5-264.3-167.3C87.5,736.2,57.2,628.3,68.6,509.5c9.2-96.2,46.6-181.2,110.7-253.7
	c70.3-79.5,157.9-129,262.5-147.7c17.1-3,34.4-4.7,51.6-7.1C509.4,101,525.4,101,541.3,101z"/>
<path d="M557.7,517.2c4.8,0,8.3,0,11.8,0c45.2,0,90.4,0.1,135.6-0.1c13.1-0.1,24.6,3.3,33,13.8c9.3,11.5,11.6,24.5,5.8,38.2
	c-5.9,13.9-16.6,21.9-31.8,23.2c-2.6,0.2-5.3,0.3-8,0.3c-59.7,0-119.3,0.1-179,0c-28.1,0-42.8-14.6-42.8-42.4
	c-0.1-85.4-0.1-170.7,0-256.1c0-27.9,19.8-45.6,45.2-40.8c16,3,28.4,16.7,29.8,33.1c0.3,4.1,0.4,8.3,0.4,12.4
	c0,68.8,0,137.6,0,206.5C557.7,508.7,557.7,512.2,557.7,517.2z"/>
</svg>
