<?xml version="1.0" encoding="utf-8"?>
<!-- Generator: Adobe Illustrator 26.0.1, SVG Export Plug-In . SVG Version: 6.00 Build 0)  -->
<svg version="1.1" id="Layer_1" xmlns="http://www.w3.org/2000/svg" xmlns:xlink="http://www.w3.org/1999/xlink" x="0px" y="0px"
	 viewBox="0 0 620.6 592.7" style="enable-background:new 0 0 620.6 592.7;" xml:space="preserve">
<g>
	<path d="M120.3,214.3c9.2,5,18.4,10,27.6,15c51.7,28.8,103.4,57.6,155.1,86.6c5,2.8,9.3,2.7,14.2,0
		c58.8-32.9,117.6-65.7,176.4-98.5c1.8-1,3.7-2,5.9-3.2c0.1,1.4,0.2,2.4,0.2,3.4c0,54.8,0,109.7,0,164.5c0,17.6-11.9,30.1-29.5,31.1
		c-1.2,0.1-2.5,0.1-3.7,0.1c-104.3,0-208.7,0-313,0.1c-10.6,0-20-2.8-26.4-11.5c-3-4.1-4.5-9.4-6.7-14.2
		C120.3,329.9,120.3,272.1,120.3,214.3z"/>
	<path d="M310,167c52.6,0,105.2,0,157.8,0c14.5,0,25.7,7.7,30.2,20.1c1.1,3.1,0.6,4.7-2.4,6.4c-49.9,27.7-99.8,55.5-149.7,83.3
		c-11.1,6.2-22.2,12.3-33.3,18.6c-1.9,1.1-3.4,1.2-5.4,0.1c-61.3-34.2-122.5-68.4-183.9-102.5c-2.4-1.3-2.6-2.5-1.9-5
		c4-12.5,15.4-20.9,29.2-21c13.8-0.1,27.7,0,41.5,0C231.5,167,270.8,167,310,167z"/>
</g>
</svg>
