<?xml version="1.0" encoding="utf-8"?>
<!-- Generator: Adobe Illustrator 26.0.1, SVG Export Plug-In . SVG Version: 6.00 Build 0)  -->
<svg version="1.1" id="Layer_1" xmlns="http://www.w3.org/2000/svg" xmlns:xlink="http://www.w3.org/1999/xlink" x="0px" y="0px"
	 viewBox="0 0 620.57 592.74" style="enable-background:new 0 0 620.57 592.74;" xml:space="preserve">
<g>
	<path d="M571.35,453.95c-3.28,10.46-5.18,21.62-10.09,31.23c-14.01,27.41-36.98,42.63-67.83,45.39
		c-6.25,0.56-12.55,0.65-18.83,0.66c-112.32,0.04-224.64,0.02-336.96,0.03c-25.28,0-47.59-7.69-64.87-26.65
		C45.43,474.6,41.81,436.72,62.36,401.1c54.88-95.13,109.75-190.26,164.8-285.29c6.36-10.97,12.78-22.22,21.05-31.71
		c17.44-20.02,40.37-28.67,66.84-27.16c31.6,1.8,54.6,17.55,70.23,44.62c57.73,99.95,115.4,199.94,173.18,299.86
		c6.72,11.63,10.68,24.1,12.89,37.24C571.35,443.75,571.35,448.85,571.35,453.95z M310.25,506.86c57.62,0,115.23,0,172.85,0
		c9.78,0,19.33-1.3,28.27-5.49c33.59-15.75,45.16-54.39,26.07-87.51c-57.76-100.16-115.57-200.29-173.53-300.33
		c-3.45-5.95-7.68-11.79-12.7-16.43c-29.08-26.83-73.47-19.92-93.76,15.03c-58.55,100.88-116.73,201.97-175.03,303
		c-7,12.13-10.29,25.17-8.12,39.14c4.93,31.72,29.47,52.52,62.07,52.57C194.34,506.93,252.29,506.86,310.25,506.86z"/>
	<path d="M309.93,492.03c-55.57,0-111.14-0.07-166.71,0.03c-21.79,0.04-38.03-9.08-47.64-28.74c-6.8-13.92-7.08-28.54,0.23-42.2
		c10.72-20.05,22.4-39.59,33.76-59.29c45.29-78.52,90.66-157,135.9-235.55c9.39-16.3,22.69-26.42,41.86-27.43
		c18.58-0.98,34.02,5.88,43.87,21.69c13.81,22.18,26.5,45.06,39.58,67.69c43.65,75.55,87.27,151.12,130.86,226.7
		c12.45,21.58,10.59,43.76-5.23,61.19c-8.71,9.6-19.65,15.3-32.65,15.56c-22.42,0.45-44.86,0.32-67.29,0.34
		C380.96,492.07,345.45,492.04,309.93,492.03z M340.91,265.38c-0.02,0-0.03,0-0.05,0c0-17.32,0.37-34.65-0.11-51.96
		c-0.45-16.24-14.16-28.8-30.41-28.83c-16.24-0.03-30.29,12.52-30.5,28.71c-0.44,34.47-0.24,68.94-0.07,103.41
		c0.04,8.36,3.75,15.49,10.05,20.96c9.57,8.31,20.61,10.36,32.25,5.45c11.83-4.99,18.43-14.42,18.73-27.32
		C341.21,299.01,340.91,282.19,340.91,265.38z M310.15,373.41c-17.17,0.09-31.49,14.51-31.37,31.61
		c0.12,17.14,14.63,31.54,31.64,31.39c17.15-0.15,31.52-14.65,31.38-31.66C341.66,387.55,327.28,373.32,310.15,373.41z"/>
</g>
</svg>
