<?xml version="1.0" encoding="utf-8"?>
<!-- Generator: Adobe Illustrator 26.0.1, SVG Export Plug-In . SVG Version: 6.00 Build 0)  -->
<svg version="1.1" id="Layer_1" xmlns="http://www.w3.org/2000/svg" xmlns:xlink="http://www.w3.org/1999/xlink" x="0px" y="0px"
	 viewBox="0 0 1080 1080" style="enable-background:new 0 0 1080 1080;" xml:space="preserve">
<style type="text/css">
	.st0{fill:#FFFFFF;}
</style>
<path d="M538.3,889c-109.6,0-219.3-2.2-328.8,0.8c-68,1.9-97.3-63.3-66.2-115.9C256,583.9,365,391.7,475.5,200.4
	c31.3-54.2,95.7-54.3,127.1-0.1c111.6,193,223.1,386,334.4,579.1c31.2,54.2-0.9,109.3-64,109.5C761.5,889.2,649.9,889,538.3,889z
	 M540.1,836.7c108.3,0,216.7,0,325,0c33.6,0,39.2-9.7,22.2-39C803.2,651.9,719.1,506.2,635,360.5c-25.7-44.6-51.3-89.2-77.3-133.6
	c-11.3-19.3-25.1-19-37,0.1c-3.1,5-6.1,10.2-9.1,15.3C404.4,428,297.2,613.7,189.9,799.4c-15.6,27-9.8,37.3,21.2,37.3
	C320.8,836.7,430.4,836.7,540.1,836.7z"/>
<path class="st0" d="M540.1,836.7c-109.7,0-219.3,0-329,0c-31,0-36.7-10.3-21.2-37.3C297.2,613.7,404.4,428,511.6,242.3
	c3-5.1,6-10.3,9.1-15.3c11.8-19.1,25.7-19.4,37-0.1c26,44.4,51.6,89.1,77.3,133.6c84.1,145.7,168.2,291.4,252.3,437.2
	c16.9,29.4,11.4,39-22.2,39C756.7,836.7,648.4,836.7,540.1,836.7z M217.8,807.9c215.5,0,427.7,0,642.8,0
	C753.2,621.9,647,438,539.2,251.3C431.2,438.3,325.2,621.9,217.8,807.9z"/>
<path d="M217.8,807.9c107.4-186,213.4-369.7,321.4-556.7C647,438,753.2,621.9,860.6,807.9C645.5,807.9,433.3,807.9,217.8,807.9z
	 M612.3,470.1c-30.3,0-57.8-0.2-85.2,0.2c-3.5,0-8,2.2-10.2,4.8c-33.8,40.1-67.2,80.6-104.2,125.1c46.8,0,88.2,0,132.2,0
	c-30,51.1-58.1,99.1-86.3,147c1.1,0.7,2.1,1.4,3.2,2.2c62.9-66.1,125.8-132.2,192.8-202.6c-41.1,0-76.6,0-112,0
	c-1.1-2.1-2.3-4.2-3.4-6.2C562.7,517.9,586.2,495.3,612.3,470.1z"/>
<path class="st0" d="M612.3,470.1c-26.1,25.2-49.6,47.8-73.2,70.5c1.1,2.1,2.3,4.2,3.4,6.2c35.4,0,70.9,0,112,0
	c-67,70.4-129.9,136.5-192.8,202.6c-1.1-0.7-2.1-1.4-3.2-2.2c28.2-48,56.3-96,86.3-147c-44,0-85.4,0-132.2,0
	c37-44.5,70.5-84.9,104.2-125.1c2.2-2.7,6.7-4.8,10.2-4.8C554.5,469.9,582,470.1,612.3,470.1z"/>
</svg>
