<?xml version="1.0" encoding="utf-8"?>
<!-- Generator: Adobe Illustrator 26.0.1, SVG Export Plug-In . SVG Version: 6.00 Build 0)  -->
<svg version="1.1" id="Layer_1" xmlns="http://www.w3.org/2000/svg" xmlns:xlink="http://www.w3.org/1999/xlink" x="0px" y="0px"
	 viewBox="0 0 1080 1080" style="enable-background:new 0 0 1080 1080;" xml:space="preserve">
<path d="M515.3,633.9c-3.4,0-6.3,0-9.2,0c-62.8,0-125.6-0.4-188.5,0.3c-16.1,0.2-24-13.4-15.8-27.6
	c82-142.7,163.4-285.8,244.9-428.8c4.1-7.1,8.9-12.5,17.7-11.5c9.2,1.1,14.7,8.8,13.5,19.3c-2.4,19.9-5.2,39.7-7.8,59.6
	c-7.1,54.3-14.2,108.5-21.3,162.8c-1.6,12.3-3.2,24.7-4.9,38.2c3.4,0,6.2,0,9,0c63.8,0,127.6,0,191.4,0c18.5,0,24.9,11.2,15.8,27.5
	c-79.7,142-159.4,284.1-239.2,426.1c-1.1,1.9-2.1,3.9-3.2,5.7c-4.3,6.9-11.1,9.7-18.1,7.6c-7.6-2.3-11.9-8.2-11.2-16.7
	c1.5-18,3.5-36,5.3-54c5.1-49.8,10.3-99.6,15.5-149.5c1.7-16.8,3.5-33.5,5.2-50.3C514.9,640,515,637.3,515.3,633.9z"/>
</svg>
