<?xml version="1.0" encoding="utf-8"?>
<!-- Generator: Adobe Illustrator 26.0.1, SVG Export Plug-In . SVG Version: 6.00 Build 0)  -->
<svg version="1.1" id="Layer_1" xmlns="http://www.w3.org/2000/svg" xmlns:xlink="http://www.w3.org/1999/xlink" x="0px" y="0px"
	 viewBox="0 0 620.57 592.74" style="enable-background:new 0 0 620.57 592.74;" xml:space="preserve">
<g>
	<path d="M378.72,40.17c0.01,28.75,0,57.49,0.02,86.24c0.01,23.11,13.55,36.71,36.57,36.72c25.78,0.02,51.55,0,77.33,0
		c1.8,0,3.6,0,5.75,0c0,28.6,0,56.91,0,85.58c-125.3,0-250.63,0-376.57,0c0-1.89,0-3.65,0-5.4c0-48.08,0.42-96.15-0.14-144.22
		c-0.39-33.35,24.08-55.32,47.55-58.18c0.43-0.05,0.82-0.49,1.22-0.74C239.88,40.17,309.3,40.17,378.72,40.17z"/>
	<path d="M310.32,478.67c-62.46,0-124.92-0.07-187.38,0.05c-16.55,0.03-29.37-6.24-36.59-21.34c-2.54-5.32-3.9-11.71-3.95-17.63
		c-0.33-40.64-0.28-81.28-0.13-121.92c0.08-22.18,15.06-37.67,37.15-38.94c1.48-0.09,2.97-0.08,4.46-0.08
		c124.26,0,248.52,0.04,372.77-0.07c13.51-0.01,24.99,3.76,33.59,14.6c5.57,7.01,8.06,15.13,8.07,23.93
		c0.08,40.97,0.21,81.94-0.03,122.91c-0.13,22.95-16.48,38.44-40.1,38.46C435.57,478.71,372.94,478.67,310.32,478.67z
		 M273.46,379.44c0,14.7,0,29.4,0,44.1c0,9.02,2.48,11.82,11.65,11.9c10.73,0.09,21.48,0.04,32.18-0.59
		c18.26-1.07,30.12-12.94,30.66-31.14c0.49-16.49,0.38-33.02-0.04-49.52c-0.37-14.56-9.21-26.27-23.62-28.35
		c-14.25-2.06-28.9-1.66-43.38-1.67c-5.26,0-7.43,3.53-7.44,9.18C273.44,348.72,273.46,364.08,273.46,379.44z M210.17,395.49
		c8.16-0.38,15.75-0.38,23.26-1.17c8.41-0.88,15.94-4.1,21.71-10.62c7.25-8.19,8-18.12,7.55-28.37
		c-0.75-17.15-9.55-28.39-26.6-30.43c-14.01-1.68-28.33-0.98-42.51-0.9c-4.71,0.03-7.19,3.38-7.2,8.41
		c-0.05,31.22,0.01,62.43-0.07,93.65c-0.01,5.04,2.54,7.78,7.08,8.63c2.86,0.54,5.93,0.57,8.82,0.17c5.85-0.81,7.92-3.42,7.94-9.3
		C210.2,415.67,210.17,405.77,210.17,395.49z M387.75,344.53c2.58,0,4.56,0,6.53,0c10.41,0,20.83,0.09,31.24-0.04
		c5.64-0.07,8.61-3.84,8.67-10.42c0.05-6.1-2.76-10.22-7.65-10.26c-18.01-0.12-36.03-0.16-54.04,0.1c-6.29,0.09-8.82,3.18-8.83,9.46
		c-0.03,30.73-0.03,61.47,0,92.2c0.01,5.88,2.13,8.45,7.95,9.31c2.57,0.38,5.29,0.37,7.85-0.01c5.78-0.87,7.98-3.53,8.01-9.36
		c0.06-10.41,0.02-20.82,0.02-31.23c0-1.75,0-3.49,0-5.69c7.28,0,13.86,0.05,20.44-0.01c6.78-0.06,9.63-2.81,9.6-9.06
		c-0.04-6.25-3.01-9.14-9.58-9.17c-6.71-0.04-13.43-0.01-20.21-0.01C387.75,361.45,387.75,353.26,387.75,344.53z"/>
	<path d="M495.45,508.82c-5.63,20.74-25.16,36.37-48.11,38.71c-2.3,0.23-4.62,0.31-6.93,0.31c-86.75,0.02-173.5,0.03-260.24,0
		c-25.69-0.01-46.4-14.17-54.77-37.24c-0.16-0.44-0.19-0.92-0.36-1.78C248.52,508.82,371.83,508.82,495.45,508.82z"/>
	<path d="M490.26,133.39c-25.75,0-51.51,0.07-77.26-0.17c-1.51-0.01-4.28-2.53-4.29-3.91c-0.26-26.22-0.19-52.45,0.51-79.18
		c28.18,26.52,55.83,53.41,82.18,81.59C491.02,132.27,490.64,132.83,490.26,133.39z"/>
	<path d="M297.7,344.66c5.35,0,10.62-0.31,15.83,0.08c5.88,0.44,10.22,4.29,10.35,10.14c0.37,16.48,0.35,32.99-0.02,49.47
		c-0.12,5.55-3.93,9.17-9.51,9.74c-5.36,0.54-10.81,0.12-16.65,0.12C297.7,391.38,297.7,368.37,297.7,344.66z"/>
	<path d="M210.6,344.63c5.87,0,11.46-0.24,17.02,0.07c5.94,0.33,9.7,3.87,10.8,9.71c0.42,2.25,0.61,4.58,0.57,6.87
		c-0.19,11.32-4.26,15.3-15.66,15.42c-4.1,0.04-8.21,0.01-12.73,0.01C210.6,365.99,210.6,355.59,210.6,344.63z"/>
</g>
</svg>
