<?xml version="1.0" encoding="utf-8"?>
<!-- Generator: Adobe Illustrator 26.0.1, SVG Export Plug-In . SVG Version: 6.00 Build 0)  -->
<svg version="1.1" id="Layer_1" xmlns="http://www.w3.org/2000/svg" xmlns:xlink="http://www.w3.org/1999/xlink" x="0px" y="0px"
	 viewBox="0 0 620.57 592.74" style="enable-background:new 0 0 620.57 592.74;" xml:space="preserve">
<g>
	<path d="M595.47,432.15c-0.56,0.91-1.17,1.79-1.67,2.73c-5.22,9.73-16.07,12.67-24.99,6.09c-23.87-17.61-47.55-35.5-71.19-53.43
		c-1.32-1-2.3-3.33-2.31-5.04c-0.12-58.99-0.12-117.98,0.02-176.97c0-1.82,1.27-4.26,2.74-5.37c23.19-17.61,46.44-35.12,69.81-52.48
		c10.35-7.69,19.94-4.7,27.59,8.2C595.47,247.97,595.47,340.06,595.47,432.15z"/>
	<path d="M243.54,477.82c-54.95,0-109.9,0.01-164.85,0c-32.55-0.01-53.57-21.07-53.57-53.68c-0.01-86.88-0.01-173.76,0-260.64
		c0.01-32.18,21.15-53.28,53.4-53.29c109.9-0.01,219.8-0.01,329.7,0c32.58,0,53.57,21.02,53.57,53.67
		c0.01,86.69,0.01,173.39,0,260.08c0,32.96-20.94,53.85-53.95,53.85C353.07,477.83,298.3,477.82,243.54,477.82z M344.82,377.56
		c2.86,0,4.89,0.02,6.92,0c11-0.13,17.93-6.58,18.07-17.5c0.21-16.7,0.42-33.41-0.09-50.1c-0.67-21.84-11.8-36.95-31.69-45.55
		c-3.03-1.31-4.1-2.87-4.59-5.97c-2.44-15.19-5.89-30.25-7.54-45.52c-1.46-13.45-8.74-21.11-20.42-25.81
		c-4.12-1.66-8.28-3.33-12.56-4.42c-27.94-7.1-56.15-7.27-84.46-2.72c-12.71,2.04-24.93,5.63-35.57,13.36
		c-4.78,3.47-7.46,8.03-8.44,13.82c-2.89,17.18-6.02,34.32-8.77,51.52c-0.52,3.26-1.94,4.55-4.81,5.81
		c-19.14,8.42-30.46,22.89-31.33,44.05c-0.72,17.41-0.42,34.88-0.16,52.32c0.15,9.99,7.18,16.44,17.15,16.68
		c2.51,0.06,5.01,0.01,7.78,0.01c0,5.62-0.03,10.43,0.01,15.24c0.09,10.47,6.82,17.95,16.29,18.17c9.56,0.23,16.9-7.48,17.1-18.05
		c0.09-4.96,0.02-9.91,0.02-15.02c44.82,0,89.04,0,133.68,0c0,5.31-0.05,10.29,0.01,15.26c0.12,10.32,7.14,17.79,16.65,17.81
		c9.35,0.01,16.51-7.58,16.73-17.86C344.91,388.14,344.82,383.16,344.82,377.56z"/>
	<path d="M336.26,343.98c-61.25,0-121.93,0-182.95,0c-0.22-1.05-0.61-2.06-0.61-3.08c-0.04-9.84-0.2-19.68,0.03-29.52
		c0.25-10.68,7.06-17.33,17.66-17.34c49.57-0.06,99.13-0.06,148.7,0.01c9.37,0.01,16.6,5.97,17.04,14.91
		C336.69,320.41,336.26,331.91,336.26,343.98z"/>
	<path d="M189.31,260.2c2.3-13.35,4.41-26.51,7-39.58c0.35-1.74,2.95-3.94,4.83-4.32c10.87-2.16,21.78-4.72,32.79-5.46
		c18.17-1.22,36.37-0.47,53.91,5.32c2.04,0.67,4.67,2.87,5.05,4.75c2.58,12.89,4.63,25.88,6.93,39.28
		C262.88,260.2,226.3,260.2,189.31,260.2z"/>
</g>
</svg>
