<?xml version="1.0" encoding="utf-8"?>
<!-- Generator: Adobe Illustrator 26.0.1, SVG Export Plug-In . SVG Version: 6.00 Build 0)  -->
<svg version="1.1" id="Layer_1" xmlns="http://www.w3.org/2000/svg" xmlns:xlink="http://www.w3.org/1999/xlink" x="0px" y="0px"
	 viewBox="0 0 620.57 592.74" style="enable-background:new 0 0 620.57 592.74;" xml:space="preserve">
<g>
	<path d="M581.77,339.59c0,61.86,0,123.72,0,185.58c-4.52,11.8-12.75,17.82-25.73,17.81c-163.8-0.09-327.6-0.05-491.39-0.08
		c-16.85,0-25.81-9.08-25.81-25.93c-0.01-57.25,0-114.5,0-171.75c0-1.87,0-3.74,0-6.06c45.57,0,90.39,0,135.46,0
		c0-15.19,0-29.93,0-45.25c-45.21,0-90.15,0-135.27,0c-0.09-1.42-0.19-2.27-0.19-3.13c0-21.73-0.1-43.47,0.08-65.2
		c0.04-4.73,0.6-9.55,1.67-14.15c7.45-32.25,34.22-53.14,68.14-53.16c110.08-0.04,220.16-0.02,330.25-0.02
		c24.91,0,49.83-0.15,74.74,0.05c29.8,0.24,55.02,18.41,64.46,46.22c1.46,4.28,2.41,8.74,3.59,13.12c0,25.45,0,50.9,0,76.35
		c-45.14,0-90.27,0-135.36,0c0,15.43,0,30.16,0,45.32c2.45,0,4.54,0,6.64,0c38.32,0,76.65-0.01,114.97,0.01
		C572.6,339.32,577.18,339.49,581.77,339.59z M285.44,248.9c0,7.92-0.13,15.32,0.06,22.71c0.08,3.08-0.76,4.8-3.86,5.85
		c-5.01,1.69-9.92,3.71-14.72,5.92c-3.03,1.4-5.08,1.01-7.35-1.49c-4.69-5.16-9.69-10.05-13.73-14.2
		c-11.02,11.03-21.32,21.34-32.07,32.1c4.46,4.29,9.32,9.17,14.41,13.8c2.31,2.1,2.75,3.85,1.28,6.79
		c-2.35,4.71-4.39,9.64-5.94,14.67c-1.01,3.3-2.48,4.47-5.91,4.34c-6.64-0.26-13.3-0.08-20.21-0.08c0,15.28,0,29.85,0,45.09
		c7.83,0,15.38,0.14,22.91-0.07c3-0.09,4.31,0.94,5.26,3.76c1.73,5.16,3.74,10.27,6.1,15.18c1.37,2.86,1.22,4.67-1.19,6.84
		c-5.2,4.7-10.13,9.71-15.41,14.82c10.92,11.7,21.25,22.76,32.34,34.64c4.79-5.11,9.4-9.72,13.63-14.64
		c2.68-3.11,5.14-4.08,9.03-2.01c3.87,2.06,8.07,3.6,12.26,4.91c4.12,1.29,5.86,3.4,5.52,7.95c-0.46,6.24-0.11,12.55-0.11,18.93
		c16.15,0,31.44,0,47.4,0c0-7.86,0.12-15.41-0.06-22.96c-0.07-2.92,0.85-4.44,3.68-5.43c5.16-1.79,10.26-3.81,15.21-6.11
		c2.94-1.37,4.81-0.85,6.88,1.48c4.65,5.24,9.52,10.28,13.74,14.8c11.27-11.23,21.61-21.52,32.38-32.25
		c-4.82-4.7-10.12-9.63-15.05-14.9c-1.04-1.12-1.4-3.75-0.89-5.29c1.79-5.33,4.33-10.41,6.11-15.74c1.01-3.03,2.44-4.12,5.62-4.01
		c6.67,0.24,13.35,0.07,20.32,0.07c0-15.99,0-31.42,0-47.4c-8.46,0-16.56-0.16-24.66,0.08c-3.44,0.1-4.92-1.09-5.93-4.37
		c-1.5-4.86-3.42-9.65-5.72-14.19c-1.68-3.31-1.17-5.36,1.54-7.69c5.17-4.45,10.08-9.19,14.42-13.2
		c-11.34-11.37-21.65-21.7-32.35-32.42c-4.56,4.66-9.6,9.6-14.37,14.79c-2.01,2.19-3.78,2.5-6.44,1.3
		c-4.98-2.24-10.05-4.33-15.22-6.1c-3.01-1.03-4.01-2.62-3.9-5.76c0.23-6.79,0.07-13.6,0.07-20.54
		C315.26,248.9,300.83,248.9,285.44,248.9z"/>
	<path d="M242.43,90.77c0,7.78,0,15.18,0,22.59c0,7.22,0,14.44,0,22c-15.13,0-29.86,0-45.32,0c0-2.11,0-3.99,0-5.87
		c0-19.26-0.02-38.52,0.01-57.78c0.02-17.87,8.83-26.64,26.78-26.64c57.6-0.02,115.2-0.02,172.8,0c17.95,0,26.76,8.78,26.79,26.64
		c0.03,21.01,0.01,42.02,0.01,63.51c-15.06,0-29.78,0-45.05,0c0-14.61,0-29.35,0-44.46C332.95,90.77,288.02,90.77,242.43,90.77z"/>
	<path d="M355.48,362.57c-1.11,25.37-21.91,45.53-45.9,44.47c-25.37-1.11-45.53-21.91-44.47-45.9c1.11-25.37,21.91-45.53,45.9-44.47
		C336.38,317.78,356.53,338.58,355.48,362.57z"/>
</g>
</svg>
