<?xml version="1.0" encoding="utf-8"?>
<!-- Generator: Adobe Illustrator 26.0.1, SVG Export Plug-In . SVG Version: 6.00 Build 0)  -->
<svg version="1.1" id="Layer_1" xmlns="http://www.w3.org/2000/svg" xmlns:xlink="http://www.w3.org/1999/xlink" x="0px" y="0px"
	 viewBox="0 0 1080 1080" style="enable-background:new 0 0 1080 1080;" xml:space="preserve">
<style type="text/css">
	.st0{fill:#FFFFFF;}
</style>
<g>
	<path d="M281.7,540.5c-0.1-112.9,92.1-205.6,204.7-205.8c114.5-0.2,206.9,91.9,206.9,206.3c0.1,112.2-92.6,205.3-204.3,205.2
		C373.8,746.3,281.7,654.9,281.7,540.5z M487.8,393.6c-82,0.2-147.5,66-147.4,148c0.2,80.4,66.5,146,147.5,146
		c80.5,0,146.7-66.6,146.5-147.1C634.2,459.4,568.4,393.4,487.8,393.6z"/>
	<path d="M130.2,454.3c44.7,4.5,88.4,8.9,132.8,13.3c-2.7,13.2-7.5,25.9-7.3,38.6c0.3,20.2-9.6,26.9-27.6,31.4
		c-32.8,8.3-64.9,19.5-97.3,29.4c-2.8,0.9-5.7,1.5-9.5,2.6C117.6,530.5,121.3,492.8,130.2,454.3z"/>
	<path d="M516.8,906.7c-39.8,3.7-77.5,0-115.6-8.8c4.5-44.6,8.9-88.6,13.3-132.8c13.5,2.7,26.2,5.3,39,7.9c0.9,0.2,1.8,0.7,2.7,0.5
		c18.3-2.8,23,8.6,27.2,23.5C493.6,833.3,505.3,869.3,516.8,906.7z"/>
	<path d="M458.2,174.6c39.2-3.9,76.9-0.1,115.5,8.7c-4.4,44.4-8.9,88.5-13.2,131.8c-19.8-3.1-38.7-5.9-57.6-9.1
		c-2.1-0.4-5-2.7-5.6-4.7C484.2,259.5,471.4,217.5,458.2,174.6z"/>
	<path d="M725.1,261.7c20.1,12.9,58.9,57.7,75.5,87.5c-34,27.9-68.3,55.9-103.3,84.5c-5-8-9.4-15.8-14.5-23.2
		c-5.6-8-12-15.5-17.5-23.5c-1.6-2.3-2.8-6.5-1.7-8.5C683.9,339.5,704.5,300.6,725.1,261.7z"/>
	<path d="M844,626.6c-44.2-4.4-87.9-8.8-132-13.2c2.7-13.4,5.3-26.2,7.9-39c0.1-0.6,0.4-1.2,0.3-1.8c-2.8-19,9.1-24,24.6-28.3
		c33.3-9.1,66.1-19.9,99.2-30c2.8-0.9,5.7-1.6,8.6-2.4C858.3,533.1,853.5,597.9,844,626.6z"/>
	<path d="M249.5,820.1c-30.1-25.6-54.7-54.5-75.4-88c34.5-28.2,68.8-56.2,102.5-83.8c12,16.3,23.7,32.2,35.1,48.3
		c1.1,1.5,0.3,5.2-0.8,7.3C290.7,742.3,270.4,780.6,249.5,820.1z"/>
	<path d="M595.2,751.5c16.5-12,31.9-23.4,47.6-34.4c1.8-1.3,5.8-1,8,0.1c38.4,20.1,76.8,40.5,116.2,61.3
		c-25.2,30.1-54.3,54.6-87.9,75.5C650.9,819.6,622.8,785.3,595.2,751.5z"/>
	<path d="M207.9,302.5c25.4-30,54.4-54.6,88-75.4c28.1,34.4,56.2,68.6,84.9,103.8c-4.8,2.8-9.3,5.1-13.6,7.9
		c-7.9,5.2-16.9,9.6-23.2,16.3c-10.9,11.8-20.2,9.7-32.9,2.5C277.5,338.4,242.9,321,207.9,302.5z"/>
	<path d="M785.5,755.1c-39.6-21-78.7-41.7-117.1-62c10-16.3,19.6-32.2,29.5-47.9c1-1.6,3.9-3.1,5.7-2.9c43.5,4.3,87,8.9,130.5,13.4
		c0.3,0,0.5,0.3,1.7,1.2C824.5,691.8,807.7,724.3,785.5,755.1z"/>
	<path d="M702.1,242.5c-21.1,39.9-41.8,78.9-62.1,117.2c-16.2-10-31.9-19.4-47.3-29.3c-1.8-1.2-3.7-4.3-3.5-6.3
		c4.1-43,8.5-85.9,12.9-128.8c0.1-0.8,0.7-1.6,1.5-3.2C638.7,203.5,671,220.3,702.1,242.5z"/>
	<path d="M651.9,868.9c-32.9,16.8-67.6,27.9-105.3,34.3c-13.1-42.6-26.2-85.1-39-126.8c19-4.6,37-9.1,55.1-13.2
		c1.8-0.4,4.8,1,6.1,2.5c27.6,33.6,55,67.3,82.5,101C651.5,867.2,651.5,867.9,651.9,868.9z"/>
	<path d="M815.6,375.5c17.1,33.6,28.3,68.3,34.5,106c-42.4,13.1-84.6,26.1-127.9,39.5c-1.1-6.5-1.9-12.4-3-18.2
		c-1.4-7.5-1.7-15.6-4.9-22.3c-6.9-14.5-1.3-22.5,10.3-31.4c28.2-21.6,55.2-44.7,82.7-67.1C809.9,379.7,812.6,377.8,815.6,375.5z"/>
	<path d="M428.4,177.9c13.2,43.1,26.2,85.3,39,126.7c-18.7,4.6-36.4,9-54.1,13.1c-1.9,0.4-5.2-0.3-6.3-1.8
		c-28.2-34.2-56.3-68.6-84.7-103.3C355.9,195.4,390.6,184.3,428.4,177.9z"/>
	<path d="M159.8,705.7c-15.6-27.7-33-81.3-34.3-106.2c41.9-12.9,84.1-25.9,126.8-39.1c2.6,13.4,3.1,27,8.1,38.7
		c6.7,15.8,1.5,24.1-11,33.7C219.1,656.2,190,681,159.8,705.7z"/>
	<path d="M189.5,326c39.7,21,78.8,41.7,117.1,61.9c-10.1,16.5-19.7,32.4-29.6,48.1c-1,1.6-3.9,3-5.8,2.8
		c-43.2-4.2-86.5-8.6-129.7-13.1c-0.5-0.1-1-0.6-2.4-1.5C150.6,389.2,167.3,356.7,189.5,326z"/>
	<path d="M273,838.6c20.9-39.5,41.6-78.6,62-117.1c16.3,10,32.2,19.5,47.9,29.4c1.6,1,3.1,3.9,3,5.7c-4.3,43.5-8.8,87-13.4,130.5
		c0,0.3-0.3,0.5-1.1,1.8C336.3,877.6,303.8,860.7,273,838.6z"/>
	<path d="M885.9,537.5c27.5-8.4,55.8-17.1,85.2-26.1c4,39.3,0.2,77.1-8.7,115.4c-28.5-2.8-56.3-5.6-84.2-8.4
		C880.7,591.6,883.2,565.3,885.9,537.5z"/>
	<path d="M933.1,375.3c17.1,33.9,28.6,68.7,34.5,106.2c-28.3,8.7-55.9,17.2-83.9,25.8c-2.9-17.3-5.7-34-8.5-50.7
		c-0.6-3.3-0.7-6.9-2.2-9.8c-7.5-14.3-1.5-22.9,10.4-31.4C900.5,403,916.3,389,933.1,375.3z"/>
	<path d="M841.6,722.5c10.1-25.6,19.6-50,29.6-75.3c26.6,2.7,54.1,5.5,82.8,8.4c-12,36.4-28.7,68.9-50.8,99.5
		C882,743.9,861.6,733,841.6,722.5z"/>
	<path d="M918.6,349c-20.2,16.5-39.7,32.5-60.1,49.1c-1.5-3.1-2.5-5.5-3.7-7.7c-12-22.7-23.7-45.5-36.2-67.8
		c-3.1-5.5-3.4-9.3-0.4-14.7c8.5-15.2,16.4-30.7,24.9-46.8C873,286.3,897.5,315.2,918.6,349z"/>
	<path d="M796.6,854c-9.2-11.3-18.1-22.1-26.5-32.4c19.1-24.3,37.9-48.3,57.5-73.2c17.9,9.5,37,19.6,57,30.1
		C859.3,808.6,830.2,833.3,796.6,854z"/>
	<path d="M819.7,242.5c-8.5,15.9-16.4,30.9-22.9,42.9c-14.8-13.4-29.6-27-44.7-40.3c-8.9-7.8-18.1-15.6-27.7-22.5
		c-5.4-3.9-7.7-7.7-6.1-14.4c1.2-4.9,1.1-10.2,1.7-16.5C756.4,203.4,788.7,220.4,819.7,242.5z"/>
	<path d="M749.3,842.6c6,7.4,13.3,16.3,21.2,25.9c-39.2,19.8-79.7,32-119.7,36.6C681.8,885.3,714.9,864.4,749.3,842.6z"/>
	<path d="M647.9,175.1c14.3,2.6,28.6,5.1,43.6,7.8c-0.7,5.6-1.3,10.1-2,15.5c-14.4-7.4-28.3-14.6-42.1-21.7
		C647.6,176.2,647.8,175.7,647.9,175.1z"/>
	<path class="st0" d="M487.8,393.6c80.5-0.1,146.4,65.8,146.6,146.9c0.3,80.5-66,147.1-146.5,147.1c-81.1,0-147.4-65.6-147.5-146
		C340.3,459.5,405.9,393.7,487.8,393.6z M487.3,423c-64.9,0.2-117.5,52.9-117.4,117.5c0.1,65.2,52.8,117.7,118.2,117.6
		c64.9-0.1,117.4-53.5,117-118.9C604.7,475.3,551.4,422.7,487.3,423z"/>
	<path d="M487.3,423c64.1-0.2,117.4,52.4,117.8,116.3c0.4,65.4-52.1,118.8-117,118.9c-65.4,0.1-118.1-52.4-118.2-117.6
		C369.8,475.8,422.4,423.2,487.3,423z M487.4,452.4c-48.7,0.1-88.1,39.6-88.1,88.3c0,48.5,39.8,88.3,88.2,88.1
		c49-0.2,88.4-40.1,88.1-89.2C575.4,491.6,535.5,452.2,487.4,452.4z"/>
	<path class="st0" d="M487.4,452.4c48.1-0.1,88,39.3,88.3,87.2c0.3,49.2-39.1,89-88.1,89.2c-48.4,0.2-88.2-39.6-88.2-88.1
		C399.3,492,438.7,452.5,487.4,452.4z M487.6,599.3c32.5-0.1,58.8-26.6,58.7-59.1c-0.2-32.1-26.4-58.3-58.4-58.4
		c-32.5-0.1-59.1,26.2-59.1,58.7C428.7,572.9,455.1,599.4,487.6,599.3z"/>
	<path d="M487.6,599.3c-32.5,0.1-58.9-26.4-58.9-58.9c0-32.5,26.6-58.8,59.1-58.7c32.1,0.1,58.3,26.3,58.4,58.4
		C546.4,572.7,520.1,599.3,487.6,599.3z"/>
</g>
</svg>
