<?xml version="1.0" encoding="utf-8"?>
<!-- Generator: Adobe Illustrator 26.0.1, SVG Export Plug-In . SVG Version: 6.00 Build 0)  -->
<svg version="1.1" id="Layer_1" xmlns="http://www.w3.org/2000/svg" xmlns:xlink="http://www.w3.org/1999/xlink" x="0px" y="0px"
	 viewBox="0 0 1080 1080" style="enable-background:new 0 0 1080 1080;" xml:space="preserve">
<g>
	<path d="M504.5,675.4c137.5,0,274.2,0,412.2,0c-3,14.9-5.9,29.3-8.9,43.7c-12.9,61.4-25.9,122.8-38.8,184.3
		c-8.6,41-39.6,66.9-81.6,67.1c-51.2,0.2-102.5,0.2-153.7,0c-41.8-0.2-72.7-25.3-81.3-66.2c-15.9-74.8-31.5-149.6-47.3-224.4
		C504.9,678.6,504.8,677.4,504.5,675.4z"/>
	<path d="M278.9,974.9c0-33.8,0-66.8,0-99.8c0-3,0.1-6,0-8.9c-0.2-7.1-2.9-12.5-10.9-12.4c-7.9,0.1-10.6,5.3-10.6,12.5
		c0.1,25.9,0,51.9,0,77.8c0,10.1,0,20.1,0,31.4c-14.9,0-29.1,0-43.3,0c-9.5,0-19.1,0.1-28.6,0c-16.3-0.2-25.2-9-25.4-25.7
		c-0.3-24.7-0.1-49.5-0.1-74.2c0-25.3,0-50.6,0-76.4c116.3,0,231.7,0,348.1,0c4,19.1,8.2,38.6,12.3,58c3.7,17.8,7.3,35.6,11.2,53.3
		c5.5,25.4,18.7,46,41.7,63.7c-26.3,0-49.7,0-74.5,0c0-8.8,0-18.5,0-28.2c0-6,0.1-11.9,0-17.9c-0.2-8.8-4.2-13.7-11-13.3
		c-8.5,0.5-10.6,6.2-10.5,13.6c0.1,15.4,0,30.8,0,46.7C410.9,974.9,345.5,974.9,278.9,974.9z"/>
	<path d="M889.8,569.4c11.6,0,23.7-0.1,35.8,0c19.7,0.1,32.7,12.3,33.6,31.8c0.4,7.7,0.4,15.5-0.3,23.2
		c-1.6,17.1-14.3,28.9-31.5,29.1c-22.6,0.3-45.3,0.1-67.9,0.1c-119.8,0-239.5,0-359.3,0c-27,0-38.6-11.7-38.7-38.6
		c0-4.8-0.2-9.5,0.1-14.3c0.9-18.2,14.2-31,32.4-31.3c12.4-0.2,24.8,0,36.1,0c-1.4-6.7-3.4-12.8-3.8-19
		C520.9,455.8,596,368.8,690.6,360c102.5-9.5,189.7,59.5,202.9,161.1c1.6,12,0.9,24.4,0.5,36.6C893.8,561.5,891.4,565.2,889.8,569.4
		z M545.5,569c109.6,0,220.8,0,330.3,0c-1-5.5-2.4-10.7-2.8-15.9c-0.7-11,0.3-22.2-1.5-32.9C857,431.1,783.2,374,693,381.5
		c-83.5,7-151.3,86.4-145.3,170C548.1,557.3,546.3,563.1,545.5,569z"/>
	<path d="M420,567.3c-31.8,0-62.4,0-93.8,0c-0.2-2.6-0.5-5.2-0.5-7.7c0-129.9,0-259.8,0-389.7c0-19.6,8.1-34.7,25.6-43.8
		c16.4-8.6,32.9-7.3,48.2,3c14.5,9.8,20.6,24.2,20.6,41.4c0,39.9,0,79.9,0,119.8c0,88.5,0,177,0,265.5
		C420,559.3,420,562.8,420,567.3z"/>
	<path d="M165.1,719.3c12-61.2,66.2-114.4,128.9-126.4c11.6-2.2,23.6-3.4,35.4-3.6c28.3-0.5,56.6-0.3,84.9-0.1
		c8.6,0.1,17.1,0.9,25.8,1.4c0,10.6-0.1,20.3,0,30c0.3,24.2,13.3,42.4,35.8,51.6c3,1.2,6.2,5.1,7,8.4c3.3,12.6,5.6,25.4,8.4,38.6
		C382.4,719.3,274,719.3,165.1,719.3z"/>
	<path d="M503.4,776.6c-114.9,0-228.5,0-342.8,0c0-11.7,0-23.1,0-35.5c3.2,0,6.1,0,9,0c105.7,0,211.3,0.1,317-0.2
		c7.4,0,10.6,1.7,11.5,9.3C499.1,758.7,501.4,767,503.4,776.6z"/>
</g>
</svg>
