<?xml version="1.0" encoding="utf-8"?>
<!-- Generator: Adobe Illustrator 26.0.1, SVG Export Plug-In . SVG Version: 6.00 Build 0)  -->
<svg version="1.1" id="Layer_1" xmlns="http://www.w3.org/2000/svg" xmlns:xlink="http://www.w3.org/1999/xlink" x="0px" y="0px"
	 viewBox="0 0 620.57 592.74" style="enable-background:new 0 0 620.57 592.74;" xml:space="preserve">
<g>
	<path d="M44.45,121.7c1.49-3.17,2.7-6.52,4.53-9.48c4.88-7.9,12.14-13.19,21.32-13.53c17.23-0.65,34.51-0.19,52.08-0.19
		c0,6.38,0,12.51,0,19.29c-9.25,0-18.3-0.13-27.34,0.03c-14.83,0.26-25.99,8.01-29.61,20.88c-1.14,4.05-1.43,8.44-1.43,12.68
		c-0.08,93.82-0.06,187.65-0.06,281.47c0,27.65-0.02,55.3,0.01,82.94c0.02,20.81,12.04,32.78,32.98,32.79
		c46.39,0.02,92.77,0.01,139.16,0.01c1.07,0,2.14,0.04,3.21-0.02c6.43-0.38,10.57-4.16,10.67-9.72c0.1-5.55-3.95-9.49-10.35-9.98
		c-1.77-0.14-3.57-0.06-5.35-0.06c-45.67,0-91.35,0-137.02-0.01c-10.82,0-13.58-2.75-13.58-13.59c-0.01-121.29-0.01-242.59,0-363.88
		c0-11.16,2.64-13.75,13.93-13.76c8.16-0.01,16.33,0,25.11,0c0,6.32,0.03,12.15-0.01,17.98c-0.07,10.89,4.15,19.56,13.89,24.72
		c9.97,5.29,20.54,5.23,29.21-1.93c9.19-7.59,16.38-8.25,26.07-0.47c8.37,6.71,18.78,5.62,28.28,0.36c1.4-0.77,2.66-1.79,3.97-2.72
		c8.62-6.11,8.77-5.87,17.84,0.08c4.07,2.67,8.75,4.91,13.47,5.99c8.29,1.89,15.73-0.96,22.51-5.98c8.51-6.3,9-6.18,17.73,0.06
		c12.1,8.64,23.57,8.72,35.59,0.25c9.39-6.62,9.47-6.73,19.03,0.38c7.64,5.69,15.75,8.84,25.45,6.65
		c12.55-2.84,20.89-12.66,20.98-25.49c0.14-19.43,0.04-38.86,0.04-58.06c0.54-0.47,0.81-0.9,1.08-0.9
		c16.76-0.06,33.56-0.7,50.28,0.06c15.19,0.69,26.72,13.14,26.8,28.21c0.24,44.23,0.15,88.47-0.01,132.71
		c-0.01,1.82-1.72,3.93-3.16,5.4c-4.94,5.09-10.63,9.54-14.98,15.06c-2.69,3.41-5.16,4.48-9.23,4.47
		c-49.24-0.12-98.48-0.11-147.72-0.06c-14.83,0.02-26.74,9.42-29.5,23.02c-3.78,18.6,9.25,34.93,28.65,35.64
		c8.02,0.29,16.05,0.08,24.08,0.08c41.75,0,83.5,0.05,125.24-0.09c3.77-0.01,5.88,1.2,8.32,4.1c4.67,5.53,10.29,10.24,15.39,15.41
		c1.24,1.26,2.84,2.93,2.9,4.46c0.29,7.99,0.14,16,0.14,24.79c-5.63,0-10.91,0.18-16.15-0.14c-1.2-0.07-2.54-1.68-3.39-2.88
		c-24.94-35.07-72.59-35.02-97.82,0.01c-1.17,1.63-3.99,2.9-6.05,2.93c-16.95,0.24-33.9-0.01-50.84,0.18
		c-16.59,0.18-28.18,9.72-30.73,24.86c-2.88,17.09,10.07,33.31,27.45,33.67c17.83,0.37,35.68,0.21,53.52,0.05
		c3.45-0.03,5.35,1.09,7.3,3.92c23.27,33.77,72.5,34.23,95.99,0.84c2.62-3.72,5.25-5.19,9.61-4.75c3.48,0.35,7.03,0.07,11.12,0.07
		c0,8.94,0.13,17.28-0.14,25.61c-0.04,1.36-1.74,2.79-2.9,3.96c-5.25,5.27-10.93,10.17-15.73,15.81c-2.22,2.6-4.05,3.74-7.42,3.73
		c-49.6-0.1-99.2-0.1-148.79-0.05c-15.34,0.02-27.26,9.66-29.86,23.9c-3.35,18.34,10.01,34.53,29.06,34.8
		c16.77,0.24,33.54,0.06,50.31,0.06c32.47,0,64.94,0.14,97.41-0.14c5.38-0.05,8.83,1.3,10.62,6.92c-2.02,0.94-4.17,1.94-6.31,2.94
		c-127.76,0-255.51,0-383.27,0c-11.89-3.81-19.77-11.63-23.55-23.55C44.45,403.56,44.45,262.63,44.45,121.7z M455.54,199.78
		c0-17.63,0.16-35.27-0.05-52.9c-0.18-15.73-12.53-28.32-27.91-28.93c-5.83-0.23-10.01,2.85-10.91,8.03
		c-0.91,5.26,2.13,9.75,7.55,11.17c10.89,2.85,11.84,4.06,11.84,15.24c0,32.42,0,64.84,0,97.26c0,1.6-0.05,3.21,0.03,4.81
		c0.27,6.03,4.03,10.01,9.49,10.11c5.6,0.1,9.88-4.1,9.92-10.29C455.62,236.12,455.55,217.95,455.54,199.78z"/>
	<path d="M498.38,568.04c-2.99-1.05-6.04-1.95-8.95-3.17c-17.77-7.44-27.37-26.25-23.02-44.98c4.29-18.48,21.14-30.89,40.75-30
		c17.73,0.8,33.37,15.18,36.04,33.12c2.82,18.96-8.38,37.08-26.59,43.07c-1.81,0.6-3.59,1.31-5.38,1.98
		C506.94,568.04,502.66,568.04,498.38,568.04z"/>
	<path d="M260.02,69.05c34.6,0,69.2-0.01,103.8,0c10.46,0,13.48,2.96,13.48,13.23c0.01,23.89-0.02,47.79,0.03,71.68
		c0.01,3.69,0.13,8.06-3.92,8.97c-3.18,0.71-6.94-0.9-10.37-1.75c-1.12-0.28-2.04-1.39-3.05-2.13
		c-14.15-10.27-24.53-10.34-38.58-0.25c-7.04,5.06-8.52,5.05-15.63-0.04c-13.87-9.95-24.28-9.95-38.15,0
		c-7.1,5.09-8.59,5.1-15.63,0.04c-13.88-9.98-24.35-10-38.15-0.09c-7.14,5.13-8.63,5.14-15.62,0.13
		c-14.11-10.12-24.49-10.08-38.57,0.16c-1.44,1.05-2.76,2.65-4.36,3.01c-3.11,0.69-6.85,1.76-9.42,0.62
		c-1.93-0.85-3.41-4.89-3.44-7.53c-0.26-24.61-0.19-49.22-0.13-73.82c0.02-9.01,3.32-12.22,12.31-12.23
		C189.74,69.04,224.88,69.05,260.02,69.05z"/>
	<path d="M367.59,421.23c0.01-21.64,17.49-39.2,39.02-39.19c21.4,0,39.17,17.77,39.19,39.19c0.02,21.49-17.62,39.07-39.18,39.05
		C384.9,460.25,367.57,442.93,367.59,421.23z"/>
	<path d="M504.74,274.57c21.76,0.15,38.89,17.5,38.78,39.28c-0.11,21.58-17.7,39.03-39.28,38.95
		c-21.33-0.07-39.07-18.04-38.94-39.44C465.43,291.84,483.15,274.42,504.74,274.57z"/>
	<path d="M446.05,519c0,6.91,0,12.93,0,19.79c-1.9,0-3.77,0-5.64,0c-45.66,0-91.33,0-136.99,0c-0.54,0-1.07,0.01-1.61,0
		c-8.14-0.13-12.54-3.63-12.51-9.95c0.03-6.27,4.5-9.82,12.63-9.82c46.56-0.02,93.11-0.01,139.67-0.01
		C442.99,519,444.38,519,446.05,519z"/>
	<path d="M446.08,304.04c0,6.31,0,12.33,0,18.98c-1.76,0.08-3.65,0.25-5.53,0.25c-46.01,0.01-92.01,0.01-138.02,0
		c-1.6,0-3.23,0.05-4.81-0.16c-4.85-0.66-7.7-3.49-8.32-8.33c-0.62-4.83,1.92-8.88,6.55-10.34c1.66-0.52,3.5-0.67,5.25-0.67
		c46.9-0.03,93.8-0.03,140.69-0.02C443.28,303.75,444.66,303.94,446.08,304.04z"/>
	<path d="M210.93,48.96c0-6.98-0.3-13.39,0.09-19.76c0.34-5.67,4.15-9.12,9.9-9.14c25.86-0.11,51.72-0.1,77.57-0.01
		c5.57,0.02,9.64,3.24,10.02,8.45c0.48,6.69,0.12,13.44,0.12,20.45C275.98,48.96,243.78,48.96,210.93,48.96z"/>
	<path d="M465.02,430.82c0-6.45,0-12.47,0-18.86c1.28-0.12,2.64-0.36,4.01-0.37c37.23-0.02,74.47-0.02,111.7-0.01
		c1.07,0,2.15-0.03,3.2,0.1c4.88,0.63,7.8,3.59,8.47,8.27c0.68,4.74-1.46,8.37-5.97,10.19c-1.59,0.64-3.46,0.85-5.19,0.86
		c-37.95,0.05-75.89,0.03-113.84,0.02C466.7,431.02,466,430.9,465.02,430.82z"/>
	<path d="M348.17,411.63c0,6.63,0,12.63,0,19.4c-3.46,0-7.12,0-10.77,0c-12.63,0-25.27,0.34-37.87-0.25
		c-3.14-0.15-7.32-2.61-8.86-5.27c-1.4-2.43-0.7-6.94,0.64-9.8c0.95-2.01,4.5-3.86,6.93-3.91
		C314.76,411.47,331.28,411.63,348.17,411.63z"/>
	<path d="M562.94,519.12c7,0,13.75-0.3,20.46,0.09c5.45,0.32,9,4.42,9.14,9.41c0.14,5.2-3.45,9.51-9.17,9.87
		c-6.71,0.42-13.46,0.1-20.43,0.1C562.94,532.14,562.94,525.99,562.94,519.12z"/>
	<path d="M562.93,323.2c0-6.72,0-12.73,0-19.23c7.1,0,14.35-0.41,21.53,0.14c5.14,0.4,8.47,5.33,8.06,10.26
		c-0.4,4.79-4.02,8.57-9.11,8.76C576.7,323.39,569.97,323.2,562.93,323.2z"/>
</g>
</svg>
