<?xml version="1.0" encoding="utf-8"?>
<!-- Generator: Adobe Illustrator 26.0.1, SVG Export Plug-In . SVG Version: 6.00 Build 0)  -->
<svg version="1.1" id="Layer_1" xmlns="http://www.w3.org/2000/svg" xmlns:xlink="http://www.w3.org/1999/xlink" x="0px" y="0px"
	 viewBox="0 0 1080 1080" style="enable-background:new 0 0 1080 1080;" xml:space="preserve">
<g>
	<path d="M250.4,916.8c-5.9-1.5-11.8-2.8-17.6-4.6c-70.6-22.8-91.3-113-37.2-164.3c108.6-102.9,217.6-205.4,326.6-307.9
		c4.5-4.2,5.2-7.5,3.3-13.2c-33.2-98.6,15.2-206.2,110.8-247.1c29.1-12.5,59.5-17.6,91.1-16c8.6,0.4,16.2,2.4,19.6,11.3
		c3.4,8.8-0.5,15.5-6.7,21.6c-29.9,29.7-59.6,59.7-89.6,89.4c-3.6,3.6-4.5,6.5-2.9,11.5c10.3,31.6,20.4,63.4,30.3,95.2
		c1.4,4.4,3.4,6.8,8,8.2c32,9.9,64,20,95.9,30.4c4.7,1.5,7.4,0.6,10.8-2.8c29.7-30,59.5-59.8,89.5-89.5c3.4-3.3,7.7-6.6,12.1-7.7
		c11-2.8,20.6,5.2,20.6,17.8c0,16.6,0.5,33.7-2.9,49.7c-18.1,85.7-69.9,139.9-155.3,160.5c-35,8.5-70.2,5.9-104.4-5.8
		c-5.8-2-9.4-1.4-13.8,3.4C537.6,666.2,436.3,775.3,335,884.5c-15.9,17.1-35.3,27.8-58.5,31.1c-0.9,0.1-1.7,0.8-2.6,1.2
		C266.1,916.8,258.2,916.8,250.4,916.8z M293.3,821.8c0.1-20-15.6-36.1-35.5-36.2c-19.8-0.1-36.1,15.8-36.4,35.6
		c-0.3,19.4,16.2,36.2,35.8,36.4C276.7,857.9,293.1,841.6,293.3,821.8z"/>
</g>
</svg>
