<?xml version="1.0" encoding="utf-8"?>
<!-- Generator: Adobe Illustrator 26.0.1, SVG Export Plug-In . SVG Version: 6.00 Build 0)  -->
<svg version="1.1" id="Layer_1" xmlns="http://www.w3.org/2000/svg" xmlns:xlink="http://www.w3.org/1999/xlink" x="0px" y="0px"
	 viewBox="0 0 1080 1080" style="enable-background:new 0 0 1080 1080;" xml:space="preserve">
<g>
	<path d="M70.3,665.2c3-16.5,4.8-33.3,9.1-49.4c24.8-92.2,81.5-155.3,172.1-187.2c2.5-0.9,5.1-1.8,7.7-2.7
		c-19.2-92.1,2-173.2,65.5-242.1C369.7,135.3,426,107.3,491.2,97c-55.2,15.2-98.9,46.2-128.7,95.2c-30.1,49.4-37.9,103-23.7,158.8
		c23.9,93.5,109.8,162,215.3,156.4c95.1-5.1,179.3-83.7,191.7-179.6c13.2-101.8-48.5-202-157-230.1c26.2-2.9,98.4,28.1,136,58.2
		c40.3,32.3,70.1,72.1,87.5,120.8c17.4,48.7,20,98.3,7.9,148.9c82.7,26.6,140.5,79.6,171.2,160.3c25.6,67.2,23.8,135-1.4,202.4
		c13.7-56.6,7.9-110.6-21.5-161.2c-29.7-50.9-73.5-84.5-130.7-97.2c-98.6-22-189.3,20.9-234.4,109.2
		c-40.5,79.3-24.9,183.2,48.9,248.1c40.2,35.4,87.6,52.7,141.1,51.8c53-0.9,99-20.6,138.6-55.6c-68.4,90.7-252.9,156.1-392,28.1
		c-62.9,57.4-136.8,80.9-221.1,68.3c-73.9-11.1-133.5-48-180.5-105.8c39,38.8,85.4,61.6,140.6,64.6c55.7,3.1,105.3-13.4,147.1-49.9
		c75.6-65.9,93.6-169.3,46.2-258.2c-43.4-81.4-143.1-124.4-234.1-99.9c-56,15-99,48-127.7,98.6C82,679.4,76.3,732.7,90.2,788.6
		c-9.8-23-15.1-47-18-71.5c-0.4-3.3-1.2-6.5-1.8-9.7C70.3,693.3,70.3,679.2,70.3,665.2z"/>
	<path d="M423.2,432.5c-12.7-15.8-25.7-32.1-38.7-48.4c77.6-64.9,212.2-77.7,311.4-0.6c-13.2,16.5-26.3,33-39.1,49.1
		C578.2,381,501.7,381,423.2,432.5z"/>
	<path d="M443.1,822.6c-76.4-34.7-125.6-89.2-148.9-166.6c-8.8-29.3-10.7-59.3-9.4-89.7c0.4-8.5,3.4-11.4,11.6-10
		c14.7,2.5,29.4,4.9,44.1,7c7.4,1,9,4.7,8.5,11.8c-3.3,51.2,12.6,96.1,45.4,135.2c17.1,20.4,37.9,36.3,62,47.6
		c5.3,2.5,7.6,4.9,5.4,11C455.6,786.3,449.7,803.8,443.1,822.6z"/>
	<path d="M639,821.3c-11.2-17.6-17.4-36.5-21.5-56.3c-0.4-1.8,3.2-5.3,5.6-6.5c44-21.9,75.7-55.3,94.4-100.6
		c10.9-26.3,15.8-53.9,13.3-82.4c-0.7-7.7,1.5-11.2,9.1-12.3c15.4-2.1,30.7-4.5,46.1-6.9c6.5-1,8.5,2,8.8,8.1
		c5.1,89.4-26.1,163.3-95,220.7C681.6,800.2,661.3,811.9,639,821.3z"/>
</g>
</svg>
