<?xml version="1.0" encoding="utf-8"?>
<!-- Generator: Adobe Illustrator 26.0.1, SVG Export Plug-In . SVG Version: 6.00 Build 0)  -->
<svg version="1.1" id="Layer_1" xmlns="http://www.w3.org/2000/svg" xmlns:xlink="http://www.w3.org/1999/xlink" x="0px" y="0px"
	 viewBox="0 0 1080 1080" style="enable-background:new 0 0 1080 1080;" xml:space="preserve">
<g>
	<path d="M329.6,996.2c-5.4-2.3-11.1-4.2-16.1-7.1c-14.8-8.6-23.3-21.6-24.9-38.8c-0.4-3.8-0.5-7.7-0.5-11.6
		c0-265.9,0-531.7-0.1-797.6c0-22.3,6.7-40.3,27-51.3c31.6-17.1,70.5,3.4,73.6,39.2c1.4,16.2,0.7,32.6,0.9,49c0,3.5,0,6.9,0,11
		c100.5,0,199.9,0,300.5,0c0.2-3,0.4-6.1,0.5-9.2c0.3-17.2-0.3-34.5,1-51.6c1.9-25.3,24.9-44.9,50.5-44.5
		c25.7,0.4,47.5,20.6,49.4,45.9c0.3,3.8,0.4,7.7,0.4,11.6c0,265.9-0.1,531.7,0.1,797.6c0,23.5-7.7,41.7-29.4,52.5
		c-3.9,2-8.2,3.3-12.2,5c-5.9,0-11.9,0-17.8,0c-1.3-0.6-2.6-1.3-4-1.8c-22.8-7.2-35.7-22.5-37.5-46.5c-0.7-9.4-0.4-19-0.5-28.5
		c-0.1-7.5,0-15.1,0-22.6c-101.1,0-200.7,0-301,0c0,15,0,29.5,0,44c0,14-2.2,28-13,37.5c-8.4,7.4-19.2,12-29,17.8
		C341.5,996.2,335.6,996.2,329.6,996.2z M390,391.8c100.2,0,199.9,0,300,0c0-33.6,0-66.7,0-100.3c-100.2,0-199.8,0-300,0
		C390,325,390,357.9,390,391.8z M690.1,794.2c0-33.7,0-66.6,0-99.6c-100.8,0-200.5,0-300.1,0c0,33.9,0,66.7,0,99.6 M689.9,591.5
		c0-32.6,0-64.8,0-97.2c-100.2,0-199.8,0-299.8,0c0,32.6,0,64.8,0,97.2"/>
</g>
</svg>
