<?xml version="1.0" encoding="utf-8"?>
<!-- Generator: Adobe Illustrator 26.0.1, SVG Export Plug-In . SVG Version: 6.00 Build 0)  -->
<svg version="1.1" id="Layer_1" xmlns="http://www.w3.org/2000/svg" xmlns:xlink="http://www.w3.org/1999/xlink" x="0px" y="0px"
	 viewBox="0 0 620.57 592.74" style="enable-background:new 0 0 620.57 592.74;" xml:space="preserve">
<g>
	<path d="M317.95,197.19c46.84,46.84,93.61,93.6,140.73,140.72c-0.75,0.83-1.94,2.26-3.25,3.56
		c-51.75,51.77-103.64,103.4-155.14,155.41c-7.84,7.92-16.73,11.2-27.27,12.64c-37.57,5.16-75.04,11-112.64,15.89
		c-17.97,2.34-33.17-9.57-30.12-30c5.89-39.43,11.46-78.91,17.07-118.38c0.96-6.76,3.2-12.72,8.12-17.64
		c53.85-53.8,107.66-107.63,161.49-161.44C317.34,197.56,317.85,197.26,317.95,197.19z"/>
	<path d="M495.05,301.02c-46.77-46.78-93.35-93.37-139.92-139.94c31.19-28.83,90.76-34.69,131.91,3.55
		C525.74,200.59,529.43,262.05,495.05,301.02z"/>
	<path d="M207.48,62.33c37.15,0,74.29-0.05,111.44,0.03c11.39,0.02,20.62,6.65,24.09,16.89c3.43,10.11,0.43,21.55-8.53,27.49
		c-4.46,2.96-10.35,5.26-15.61,5.28c-74.29,0.34-148.59,0.31-222.88,0.16c-15.02-0.03-25.87-11.11-25.71-25.27
		c0.16-14.11,11.25-24.55,26.34-24.57C133.57,62.29,170.53,62.33,207.48,62.33z"/>
	<path d="M170.16,211.83c-25.08-0.01-50.16,0.11-75.24-0.06c-12.01-0.08-21.53-8.18-24.14-19.85c-2.41-10.76,3.03-22.43,13.38-27.13
		c3.93-1.79,8.59-2.75,12.93-2.76c48.61-0.19,97.21-0.17,145.82-0.09c15.42,0.03,26.69,10.69,26.76,24.89
		c0.07,14.45-11.32,24.97-27.17,25C218.38,211.86,194.27,211.84,170.16,211.83z"/>
	<path d="M120.01,311.37c-8.36,0.01-16.73,0.18-25.08-0.03c-14.14-0.37-24.75-11.25-24.64-24.98c0.11-13.47,10.66-24.28,24.51-24.49
		c16.91-0.26,33.84-0.27,50.75,0c13.93,0.23,24.22,10.97,24.25,24.65c0.03,13.69-10.22,24.38-24.12,24.8
		C137.12,311.57,128.56,311.36,120.01,311.37z"/>
</g>
</svg>
