<?xml version="1.0" encoding="utf-8"?>
<!-- Generator: Adobe Illustrator 26.0.1, SVG Export Plug-In . SVG Version: 6.00 Build 0)  -->
<svg version="1.1" id="Layer_1" xmlns="http://www.w3.org/2000/svg" xmlns:xlink="http://www.w3.org/1999/xlink" x="0px" y="0px"
	 viewBox="0 0 620.57 592.74" style="enable-background:new 0 0 620.57 592.74;" xml:space="preserve">
<g>
	<path d="M568.18,328.29c-13.47,5.12-26.99,10.1-40.33,15.52c-1.77,0.72-3.35,3.51-3.82,5.61c-5.02,22.44-13.3,43.56-24.91,63.39
		c-0.57,0.98-1.25,1.9-2.15,3.27c-7.4-12.82-14.6-25.29-21.8-37.76c-4.69-8.13-9.58-16.17-13.96-24.47
		c-1.17-2.21-1.66-5.49-0.99-7.86C485.05,258,431.46,168.8,342.15,149.71c-85.12-18.19-169.65,38.53-185.17,124.26
		c-13.17,72.79,25.1,143.54,93.17,172.29c1.35,0.57,2.63,1.28,4,1.95c-8.82,19.08-23.22,35-28.07,56.93
		c-11.23-6.16-22.28-12-33.08-18.27c-3.19-1.85-5.57-2.48-9.13-0.78c-11.04,5.26-22.36,9.93-33.46,15.06
		c-2.99,1.38-4.89,1.41-7.38-1.16c-10.03-10.38-20.28-20.56-30.6-30.65c-2.14-2.1-2.47-3.73-1.21-6.46
		c5.34-11.56,10.35-23.28,15.66-34.86c1.26-2.75,1.1-4.81-0.56-7.38c-14.35-22.18-24.43-46.16-29.78-72.07
		c-0.62-2.98-2.17-4.4-4.98-5.45c-13.03-4.85-25.97-9.94-39.16-15.04c0-16.4-0.08-32.67,0.15-48.93c0.02-1.33,1.98-3.25,3.46-3.85
		c11.82-4.74,23.71-9.3,35.65-13.71c2.83-1.05,4.28-2.62,4.9-5.56c5.37-25.9,15.45-49.89,29.84-72.04c1.71-2.63,1.64-4.71,0.42-7.39
		c-5.29-11.59-10.33-23.29-15.64-34.86c-1.14-2.49-1.06-4.03,1.01-6.05c10.57-10.32,21-20.78,31.34-31.33
		c1.97-2.01,3.53-2.27,6.07-1.12c11.74,5.36,23.52,10.64,35.42,15.61c1.89,0.79,5.01,0.63,6.7-0.45
		c22.44-14.29,46.59-24.3,72.57-30.04c1.83-0.4,4-2.4,4.73-4.17c4.88-11.94,9.49-24,14-36.09c1.04-2.78,2.44-3.81,5.46-3.77
		c14.44,0.16,28.87,0.16,43.31,0c3.19-0.04,4.69,0.97,5.81,4c4.4,11.95,8.97,23.84,13.82,35.62c0.78,1.9,3.11,4,5.07,4.44
		c25.65,5.67,49.55,15.49,71.6,29.74c2.89,1.87,5.12,2.13,8.23,0.7c11.56-5.34,23.29-10.32,34.87-15.62
		c2.37-1.09,3.81-0.9,5.64,0.97c10.48,10.64,21.04,21.22,31.71,31.68c1.91,1.87,1.98,3.37,0.95,5.64
		c-5.28,11.59-10.34,23.28-15.65,34.86c-1.31,2.85-1.39,5.04,0.43,7.85c14.3,22.01,24.27,45.87,29.67,71.58
		c0.6,2.85,1.73,4.62,4.7,5.7c11.8,4.31,23.48,8.96,35.23,13.42c1.36,0.52,2.86,0.69,4.29,1.02
		C568.18,293.37,568.18,310.83,568.18,328.29z"/>
	<path d="M385.02,543.69c-35.74,0-71.48,0.07-107.22-0.03c-18.36-0.05-31.72-11.27-34.52-28.79c-1.34-8.35,1.19-15.84,5.34-23.01
		c30.13-52.09,60.18-104.22,90.27-156.34c5.53-9.58,11.01-19.19,16.62-28.73c14.31-24.34,44.99-24.41,59.14,0.02
		c35.79,61.79,71.49,123.64,107.11,185.52c11.65,20.24,2.82,43.82-18.58,49.85c-3.97,1.12-8.27,1.43-12.42,1.45
		C455.5,543.73,420.26,543.69,385.02,543.69z M398.87,404.17c0.44,0,0.88,0,1.32,0c0-13.59-0.12-27.18,0.06-40.76
		c0.07-5.57-1.67-9.98-6.67-12.54c-12.27-6.3-24.18,1.08-23.71,14.7c0.91,26.84,1.93,53.68,2.94,80.51
		c0.29,7.85,5.35,13.19,12.32,13.15c6.88-0.03,11.68-4.98,12.04-12.79C397.82,432.35,398.31,418.26,398.87,404.17z M369.56,502.85
		c0.04,8.59,7.24,15.72,15.72,15.56c8.27-0.15,15.31-7.22,15.44-15.49c0.13-8.49-7-15.64-15.62-15.66
		C376.35,487.25,369.52,494.11,369.56,502.85z"/>
</g>
</svg>
