<?xml version="1.0" encoding="utf-8"?>
<!-- Generator: Adobe Illustrator 26.0.1, SVG Export Plug-In . SVG Version: 6.00 Build 0)  -->
<svg version="1.1" id="Layer_1" xmlns="http://www.w3.org/2000/svg" xmlns:xlink="http://www.w3.org/1999/xlink" x="0px" y="0px"
	 viewBox="0 0 620.57 592.74" style="enable-background:new 0 0 620.57 592.74;" xml:space="preserve">
<g>
	<path d="M199.03,47.84c72.49,0,144.99,0,217.48,0c0.06,1.92,0.17,3.84,0.17,5.76c0.01,34.64,0.01,69.28,0.01,103.93
		c0,1.88,0,3.76,0,6.29c38.98,0,77.37,0,115.83,0c0,125.85,0,251.04,0,376.37c-111.12,0-221.97,0-332.9,0c0-29.48,0-58.6,0-88.06
		c35.39,0.36,66.42-10.65,92.31-34.61c25.88-23.95,39.93-53.77,41.83-89.02c1.73-32.15-7.19-61.32-27.05-86.63
		c-27.11-34.53-63.31-50.81-107.37-50.82c0-2.32,0-4.21,0-6.11c0-43.78,0-87.57-0.01-131.35C199.33,51.67,199.13,49.76,199.03,47.84
		z M303.21,439.4c0,9.82,0,19.05,0,28.5c57.17,0,114.08,0,171.15,0c0-9.64,0-18.98,0-28.5C417.15,439.4,360.34,439.4,303.21,439.4z
		 M474.41,207.73c-43.44,0-86.61,0-129.8,0c0,9.61,0,18.84,0,28.31c43.33,0,86.39,0,129.8,0
		C474.41,226.52,474.41,217.16,474.41,207.73z M344.59,409.82c43.41,0,86.48,0,129.8,0c0-9.63,0-18.99,0-28.51
		c-43.42,0-86.49,0-129.8,0C344.59,390.81,344.59,400.05,344.59,409.82z M358.99,294.03c38.68,0,76.92,0,115.46,0
		c0-9.54,0-18.92,0-28.48c-38.58,0-76.92,0-115.46,0C358.99,275.07,358.99,284.31,358.99,294.03z M474.39,351.86
		c0-9.7,0-19.06,0-28.33c-38.69,0-77.03,0-115.35,0c0,9.62,0,18.85,0,28.33C397.5,351.86,435.7,351.86,474.39,351.86z
		 M301.11,177.94c28.89,0,57.6,0,86.24,0c0-9.7,0-19.04,0-28.38c-28.96,0-57.52,0-86.24,0
		C301.11,159.18,301.11,168.43,301.11,177.94z"/>
	<path d="M102.16,321.52c0.1-56.03,45.78-101.5,101.83-101.35c55.85,0.15,101.07,45.63,101,101.59
		c-0.07,56.16-45.58,101.51-101.71,101.34C147.53,422.95,102.06,377.26,102.16,321.52z"/>
	<path d="M93.96,392.2c10.14,15.81,23.6,29.1,40.33,39.98c-5.46,5.39-10.57,10.4-15.65,15.45c-7.61,7.57-15.09,15.28-22.81,22.72
		c-8.58,8.27-18.75,10.89-30.09,6.91c-11.31-3.97-17.69-12.32-19.26-24.14c-1.01-7.65,0.59-15.17,5.93-20.61
		C65.86,418.83,79.91,405.75,93.96,392.2z"/>
	<path d="M445.98,58.08c25.43,25.43,50.91,50.91,76.31,76.31c-25.03,0-50.52,0-76.31,0C445.98,108.73,445.98,83.32,445.98,58.08z"/>
</g>
</svg>
