<?xml version="1.0" encoding="utf-8"?>
<!-- Generator: Adobe Illustrator 26.0.1, SVG Export Plug-In . SVG Version: 6.00 Build 0)  -->
<svg version="1.1" id="Layer_1" xmlns="http://www.w3.org/2000/svg" xmlns:xlink="http://www.w3.org/1999/xlink" x="0px" y="0px"
	 viewBox="0 0 620.57 592.74" style="enable-background:new 0 0 620.57 592.74;" xml:space="preserve">
<g>
	<path d="M62.95,165.81c0.88-4.14,1.65-8.3,2.66-12.41c10.49-42.58,47.3-72.76,91.16-73.57c36.06-0.67,72.14-0.22,108.22-0.17
		c7.84,0.01,12.06,4.12,12.36,11.95c0.23,6.14,0.38,12.32-0.07,18.43c-0.71,9.72-4.01,12.54-13.73,12.54
		c-34.02,0.02-68.05,0.46-102.06-0.13c-29.07-0.51-49.09,20.6-53.64,39.4c-1.27,5.26-1.85,10.82-1.86,16.24
		c-0.12,77.29,0.25,154.58-0.25,231.87c-0.19,29.1,20.78,49.41,39.89,53.8c5.6,1.29,11.51,1.71,17.28,1.74
		c32.31,0.16,64.62,0.07,96.94,0.09c2.22,0,4.46-0.02,6.65,0.26c5.47,0.69,10.53,2.32,10.75,10.36c0.2,7.16,0.43,14.37-0.14,21.5
		c-0.63,7.89-4.23,10.82-12.11,10.83c-35.39,0.04-70.78-0.11-106.17,0.03c-51.6,0.2-91.04-42.07-94.99-83.88
		c-0.07-0.79-0.58-1.55-0.88-2.32C62.95,336.85,62.95,251.33,62.95,165.81z"/>
	<path d="M363.17,208.23c0-2.58,0-4.59,0-6.6c0-29.24-0.08-58.48,0.04-87.72c0.06-15.26,10.76-25.46,24.64-22.95
		c4.4,0.79,9.15,3.36,12.34,6.53c60.48,60.17,120.79,120.52,181.04,180.92c9.64,9.67,9.61,21.7-0.02,31.37
		c-60.26,60.4-120.6,120.71-180.93,181.04c-6.68,6.68-14.68,8.91-23.46,5.33c-9.35-3.8-13.67-11.3-13.65-21.43
		c0.05-29.41,0.01-58.82,0.01-88.23c0-2.01,0-4.02,0-6.56c-2.66,0-4.68,0-6.7,0c-46.67,0-93.34-0.02-140.02,0.02
		c-6.7,0.01-12.85-1.2-17.95-6.02c-4.94-4.67-6.97-10.45-6.97-17.04c-0.03-41.89-0.14-83.79,0.05-125.68
		c0.07-14.54,9.27-22.96,24.4-22.97c46.84-0.05,93.69-0.02,140.53-0.02C358.53,208.23,360.54,208.23,363.17,208.23z"/>
</g>
</svg>
