<?xml version="1.0" encoding="utf-8"?>
<!-- Generator: Adobe Illustrator 26.0.1, SVG Export Plug-In . SVG Version: 6.00 Build 0)  -->
<svg version="1.1" id="Layer_1" xmlns="http://www.w3.org/2000/svg" xmlns:xlink="http://www.w3.org/1999/xlink" x="0px" y="0px"
	 viewBox="0 0 620.57 592.74" style="enable-background:new 0 0 620.57 592.74;" xml:space="preserve">
<g>
	<path d="M50.23,281.8c0.81-3.44,1.52-6.91,2.46-10.31c8.34-30.46,35.33-51.55,67.11-52.45c1.84-0.05,3.68-0.01,5.84-0.01
		c5.97-56.7,31.24-102.26,77.23-135.59c32.03-23.22,68.23-34.56,107.85-34.36c47.92,0.25,89.77,16.61,124.94,49.05
		c35.15,32.42,54.38,73.03,58.99,120.21c7,0.86,13.62,1.21,20.03,2.54c31.42,6.53,55.08,35,55.42,67.08
		c0.2,18.76,0.85,37.67-1.12,56.26c-3.38,31.97-32.17,57.77-64.3,59.5c-8.27,0.45-16.58,0.29-24.87,0.24
		c-10.94-0.06-17.16-6.4-17.16-17.49c-0.03-50.43-0.04-100.86,0-151.29c0.03-36.17-10.45-69.01-33.74-96.64
		C387.31,89.2,333.85,70.6,271.55,86.99c-62.29,16.38-99.27,58.95-111.58,122.3c-1.73,8.89-2.02,18.17-2.06,27.27
		c-0.19,49.42-0.09,98.83-0.09,148.25c0,12.43-3.87,17.8-16.02,19.21c-38.19,4.43-70.92-8.73-85.95-43.49
		c-2.58-5.96-3.77-12.52-5.61-18.8C50.23,321.74,50.23,301.77,50.23,281.8z"/>
	<path d="M310.39,538.9c-6.76,0.01-13.53,0.12-20.29-0.02c-18.17-0.36-32.22-14.4-32.38-32.24c-0.16-17.41,13.72-32.11,31.52-32.65
		c14.02-0.43,28.08-0.45,42.1,0.01c17.77,0.58,31.65,15.42,31.37,32.79c-0.28,17.68-14.18,31.66-32.03,32.07
		C323.92,539.02,317.16,538.89,310.39,538.9z"/>
	<path d="M239.74,497.46c0,5.97,0,11.67,0,17.39c-60.55,7.3-113.33-38.07-120.54-91.7c5.87,0,11.7,0,17.46,0
		C151.77,474.67,186.45,499.02,239.74,497.46z"/>
</g>
</svg>
