<?xml version="1.0" encoding="utf-8"?>
<!-- Generator: Adobe Illustrator 26.0.1, SVG Export Plug-In . SVG Version: 6.00 Build 0)  -->
<svg version="1.1" id="Layer_1" xmlns="http://www.w3.org/2000/svg" xmlns:xlink="http://www.w3.org/1999/xlink" x="0px" y="0px"
	 viewBox="0 0 620.57 592.74" style="enable-background:new 0 0 620.57 592.74;" xml:space="preserve">
<g>
	<path d="M306.46,38.73c3.03,0.76,6.09,1.44,9.09,2.29c26.69,7.6,45.05,34.93,41.52,61.76c-3.93,29.83-27.87,51.51-57.1,51.71
		c-28.68,0.2-53.18-20.56-57.55-48.77c-4.92-31.77,15.96-60.65,47.78-66.14c0.79-0.14,1.52-0.56,2.28-0.86
		C297.14,38.73,301.8,38.73,306.46,38.73z"/>
	<path d="M223.42,325.71c2.29,51.85,45.35,75.69,76.51,75.41c33.38-0.3,73.67-26.26,75.55-75.41c49.12,0,98.25,0,147.84,0
		c0,10.46,0,20.97,0,31.94c-10.04,1.1-20.06,2.24-30.09,3.3c-10.25,1.09-20.51,2-30.73,3.29c-1.51,0.19-3.7,1.8-4.08,3.16
		c-3.96,14.33-9.62,27.9-16.9,40.86c-0.7,1.25-0.02,4.08,1.01,5.39c11.25,14.2,22.7,28.25,34.09,42.34
		c1.34,1.66,2.64,3.35,3.58,4.55c-15.35,15.35-30.36,30.37-45.66,45.66c-16.28-13.15-32.94-26.6-49.1-39.65
		c-10.74,4.74-21.03,9.31-31.35,13.79c-2.12,0.92-4.37,1.58-6.6,2.23c-9.23,2.69-9.1,2.69-10.07,12.43
		c-1.78,18.01-3.75,36-5.66,54.31c-21.51,0-42.7,0-64.5,0c-0.89-8.07-1.8-16.27-2.68-24.47c-1.32-12.23-2.56-24.46-4.01-36.67
		c-0.15-1.29-1.28-3.11-2.38-3.52c-7.46-2.77-15.19-4.86-22.53-7.89c-7.34-3.03-14.33-6.89-21.74-10.52
		c-16.51,13.33-33.17,26.79-49.44,39.92c-15.24-15.26-30.25-30.28-45.68-45.73c5.12-6.35,10.72-13.31,16.33-20.26
		c7.1-8.79,14.15-17.64,21.38-26.33c1.83-2.2,1.94-3.74,0.73-6.49c-5.69-12.87-11.1-25.86-16.21-38.97
		c-1.15-2.97-2.35-4.09-5.47-4.39c-19.02-1.85-38.02-3.89-57.01-6.04c-1.19-0.13-3.18-1.64-3.2-2.55
		c-0.23-9.77-0.15-19.55-0.15-29.68C124.8,325.71,173.93,325.71,223.42,325.71z"/>
	<path d="M412.28,295.18c-75.32,0-150.21,0-225.58,0c-0.1-1.71-0.28-3.3-0.28-4.89c-0.02-22.1-0.09-44.21,0.01-66.31
		c0.15-31.13,22.38-53.4,53.4-53.46c40.05-0.07,80.11-0.11,120.16,0.02c25.88,0.08,47,17.5,51.74,42.41
		c0.56,2.92,0.74,5.95,0.74,8.92c0.06,23.43,0.04,46.87,0.03,70.3C412.51,292.99,412.39,293.81,412.28,295.18z"/>
	<path d="M156.48,295.1c-27.23,0-53.92,0-81.01,0c-0.1-1.53-0.28-2.98-0.28-4.42c-0.02-19.46-0.14-38.91,0.02-58.37
		c0.16-19.75,8.24-35.19,26.43-43.85c5.97-2.84,13-4.38,19.63-4.7c14.59-0.69,29.24-0.21,44.5-0.21c-1.55,3.8-3.02,7.23-4.34,10.71
		c-3.77,9.92-4.99,20.25-4.96,30.8c0.06,21.45,0.02,42.9,0.02,64.35C156.48,291.21,156.48,292.99,156.48,295.1z"/>
	<path d="M523.05,295.11c-26.64,0-53.33,0-80.59,0c0-2.25,0-4.2,0-6.15c-0.05-23.11-0.06-46.22-0.16-69.34
		c-0.05-11.31-2.82-22.01-7.65-32.2c-0.48-1.02-0.87-2.09-1.54-3.73c1.67-0.07,2.9-0.19,4.13-0.17c15.61,0.25,31.27-0.1,46.83,0.93
		c19.46,1.29,38.13,19.99,38.79,39.38C523.66,247.38,523.05,270.97,523.05,295.11z"/>
	<path d="M176.49,65.58c37.36-0.06,63.01,39.26,47.3,72.72c-0.95,2.02-3.39,4.1-5.54,4.66c-15.52,4.11-28.67,11.98-39.9,23.4
		c-1.55,1.57-4.62,2.64-6.82,2.41c-22.05-2.29-39.86-17.84-45.25-39.08c-5.21-20.52,3.25-42.57,21.16-55.12
		C155.61,68.83,166.06,65.6,176.49,65.58z"/>
	<path d="M422.56,65.58c23.36,0.07,44.08,16.27,49.97,39.07c5.83,22.56-4.31,46.64-25.09,57.59c-6.3,3.32-13.65,4.8-20.66,6.57
		c-1.73,0.44-4.59-0.75-5.94-2.15c-11.38-11.79-24.87-19.74-40.74-23.87c-1.87-0.49-3.97-2.34-4.83-4.12
		C359.11,105.36,384.98,65.47,422.56,65.58z"/>
</g>
</svg>
