<?xml version="1.0" encoding="utf-8"?>
<!-- Generator: Adobe Illustrator 26.0.1, SVG Export Plug-In . SVG Version: 6.00 Build 0)  -->
<svg version="1.1" id="Layer_1" xmlns="http://www.w3.org/2000/svg" xmlns:xlink="http://www.w3.org/1999/xlink" x="0px" y="0px"
	 viewBox="0 0 620.57 592.74" style="enable-background:new 0 0 620.57 592.74;" xml:space="preserve">
<g>
	<path d="M73.81,427.6c0-13.64,0-26.95,0-40.85c30.69,0,61.3,0,92.47,0c0-13.99,0-27.4,0-41.01c20.75,0,40.91,0,61.49,0
		c0,13.58,0,26.87,0,40.55c59.96,0,119.51,0,180.24,0c-10.18-1.98-18.22-5.83-24.68-12.66c-6.66-7.04-10.82-15.41-11.15-25
		c-0.49-14.44-0.13-28.91-0.13-43.65c0.97-0.18,1.85-0.5,2.74-0.5c30.23-0.01,60.46-0.14,90.68,0.09c11.94,0.09,20.89,6,26.39,16.51
		c5.43,10.36,4.86,20.84-1.35,30.72c-5.71,9.08-14.29,13.58-24.91,14.32c-0.64,0.05-1.29,0.12-1.93,0.06
		c-9.08-0.96-16.62,0.29-22.68,8.86c-4.85,6.86-13.41,9.54-21.77,11.58c42.3,0,84.6,0,127.24,0c0,13.83,0,27.24,0,40.98
		C389.06,427.6,231.74,427.6,73.81,427.6z M454.43,345.45c2.15,0,3.74,0.01,5.33,0c1.93-0.02,3.86,0.06,5.78-0.13
		c5.13-0.49,8.9-4.41,9.27-9.45c0.35-4.87-3.03-9.82-8.01-10.54c-4.01-0.58-8.17-0.12-12.37-0.12
		C454.43,332.03,454.43,338.39,454.43,345.45z"/>
	<path d="M83.73,283.32c0-2.04,0-3.77,0-5.5c0-31.18-0.01-62.37,0-93.55c0.01-16,8.04-24.05,24-24.05
		c59.48-0.01,118.95-0.01,178.43,0c16.06,0,24.04,7.95,24.04,23.93c0,31.18,0,62.37,0,93.55c0,1.75,0,3.5,0,5.62
		C234.79,283.32,159.67,283.32,83.73,283.32z"/>
	<path d="M485.23,57.49c34.51,0.18,61.71,27.63,61.53,62.1c-0.17,34-27.91,61.47-61.96,61.35c-33.73-0.12-61.84-28.48-61.45-62.01
		C423.74,84.65,451.28,57.31,485.23,57.49z M474.99,108.88c-4.12,0-7.49-0.17-10.83,0.04c-5.8,0.36-9.99,4.89-9.87,10.4
		c0.12,5.36,4.17,9.72,9.79,9.9c7.21,0.23,14.44,0.23,21.64,0c5.43-0.18,9.4-4.08,9.6-9.51c0.27-7.21,0.28-14.44,0.01-21.64
		c-0.22-5.83-4.81-9.78-10.48-9.65c-5.5,0.13-9.51,4.01-9.82,9.77C474.84,101.51,474.99,104.86,474.99,108.88z"/>
	<path d="M145.8,468.59c-0.13-1.03-0.3-1.8-0.3-2.57c-0.02-5.61-0.01-11.21-0.01-17.2c109.81,0,219.3,0,329.13,0
		c0,6.45,0,12.94,0,19.78C364.97,468.59,255.48,468.59,145.8,468.59z"/>
	<path d="M309.89,305.07c-0.07,10.33-8,18.87-18.47,19.79c-1.12,0.1-2.25,0.08-3.37,0.08c-60.77,0-121.55,0.02-182.32-0.01
		c-12.34-0.01-20.17-7.01-21.84-19.86C159.27,305.07,234.58,305.07,309.89,305.07z"/>
	<path d="M474.58,530.54c-34.52,0-68.24,0-102.29,0c0-13.52,0-26.91,0-40.58c34.07,0,68.04,0,102.29,0
		C474.58,503.53,474.58,516.91,474.58,530.54z M413.26,509.97c-0.09,5.79,4.51,10.53,10.19,10.5c5.44-0.03,10.09-4.63,10.2-10.1
		c0.12-5.65-4.65-10.51-10.28-10.49C417.85,499.91,413.35,504.4,413.26,509.97z"/>
	<path d="M124.63,530.47c-13.52,0-26.81,0-40.5,0c0-27.2,0-54.25,0-81.67c13.35,0,26.75,0,40.5,0
		C124.63,475.75,124.63,502.82,124.63,530.47z"/>
	<path d="M495.72,448.61c13.71,0,27.01,0,40.64,0c0,27.25,0,54.31,0,81.72c-13.55,0-26.95,0-40.64,0
		C495.72,503.18,495.72,476.1,495.72,448.61z"/>
	<path d="M423.33,223.12c-0.33,0.89-0.62,3.15-1.84,4.65c-2.55,3.12-2.69,5.6-0.15,8.93c3.42,4.47,2.42,10.44-1.66,13.82
		c-3.94,3.26-9.63,3.07-13.66-0.44c-10.18-8.87-9.75-27.52,0.8-35.92c3.13-2.49,6.6-3.51,10.3-1.74
		C421,214.28,423.27,217.45,423.33,223.12z"/>
	<path d="M367.72,262.64c0.14-5.9,2.23-12.31,7.77-17.2c4.3-3.8,9.1-3.99,13.07-0.7c4.21,3.49,5.44,9.44,2.12,13.78
		c-2.61,3.43-2.66,5.89-0.02,9.32c3.23,4.21,2.14,10.14-1.75,13.45c-3.89,3.31-9.71,3.29-13.64-0.29
		C370.28,276.46,367.76,270.71,367.72,262.64z"/>
	<path d="M429.45,263.34c0.16-6.59,2.24-13,7.77-17.89c4.3-3.8,9.1-4,13.07-0.71c4.21,3.49,5.45,9.43,2.14,13.78
		c-2.6,3.42-2.68,5.88-0.03,9.32c3.23,4.2,2.15,10.14-1.74,13.45c-3.88,3.31-9.62,3.2-13.66-0.25
		C432.44,277.14,429.52,270.52,429.45,263.34z"/>
</g>
</svg>
